<svg xmlns="http://www.w3.org/2000/svg" viewBox="0 0 2048 2048" width="2048" height="2048"><path d="M977.500 1.048 C 951.994 1.982,935.608 3.114,935.000 3.983 C 934.725 4.376,929.810 4.977,924.078 5.318 C 918.347 5.658,913.390 6.370,913.063 6.898 C 912.736 7.426,906.626 8.403,899.485 9.068 C 892.343 9.733,886.275 10.598,886.000 10.990 C 885.725 11.383,881.244 12.243,876.042 12.902 C 870.840 13.561,866.086 14.514,865.476 15.020 C 864.867 15.525,861.810 16.240,858.684 16.607 C 855.558 16.975,853.000 17.663,853.000 18.138 C 853.000 18.612,851.538 19.029,849.750 19.064 C 846.319 19.132,833.789 21.713,835.500 22.000 C 837.047 22.259,824.851 24.863,821.750 24.936 C 820.237 24.971,819.000 25.378,819.000 25.840 C 819.000 26.302,815.849 27.243,811.997 27.931 C 808.146 28.619,805.216 29.540,805.486 29.977 C 805.756 30.415,803.507 31.081,800.489 31.458 C 797.470 31.835,795.000 32.503,795.000 32.942 C 795.000 33.381,792.188 34.293,788.750 34.969 C 785.313 35.644,782.252 36.598,781.948 37.087 C 781.645 37.576,778.968 38.437,776.000 39.000 C 773.032 39.563,770.354 40.427,770.049 40.920 C 769.745 41.413,767.696 42.149,765.498 42.555 C 763.299 42.961,759.932 44.127,758.015 45.147 C 756.098 46.166,753.735 47.000,752.765 47.000 C 751.794 47.000,751.000 47.378,751.000 47.840 C 751.000 48.302,748.525 49.274,745.500 50.000 C 742.475 50.726,740.000 51.616,740.000 51.979 C 740.000 52.342,737.750 53.251,735.000 54.000 C 732.250 54.749,730.000 55.659,730.000 56.022 C 730.000 56.385,727.525 57.236,724.500 57.913 C 721.475 58.590,719.000 59.561,719.000 60.072 C 719.000 60.582,718.357 61.000,717.571 61.000 C 716.786 61.000,715.548 61.588,714.821 62.308 C 714.095 63.027,711.362 64.210,708.750 64.937 C 706.138 65.665,704.000 66.651,704.000 67.130 C 704.000 67.608,703.298 68.000,702.441 68.000 C 701.012 68.000,685.505 74.885,682.000 77.075 C 681.175 77.591,679.825 78.293,679.000 78.636 C 672.698 81.253,660.124 87.805,659.000 89.057 C 658.725 89.363,656.925 90.237,655.000 91.000 C 653.075 91.763,651.275 92.663,651.000 93.000 C 650.725 93.337,649.038 94.205,647.250 94.928 C 645.462 95.651,644.000 96.566,644.000 96.961 C 644.000 97.357,642.215 98.269,640.033 98.989 C 637.851 99.709,636.303 100.681,636.592 101.149 C 636.881 101.617,636.449 102.000,635.630 102.000 C 634.812 102.000,633.536 102.607,632.794 103.349 C 632.052 104.091,629.770 105.251,627.722 105.927 C 625.675 106.602,624.000 107.594,624.000 108.130 C 624.000 108.666,622.650 109.575,621.000 110.150 C 619.350 110.725,618.000 111.511,618.000 111.897 C 618.000 112.283,616.425 113.168,614.500 113.864 C 612.575 114.560,611.000 115.550,611.000 116.065 C 611.000 116.579,610.347 117.000,609.550 117.000 C 608.752 117.000,607.740 117.563,607.300 118.252 C 606.860 118.940,605.150 120.178,603.500 121.002 C 601.850 121.826,600.050 122.860,599.500 123.301 C 598.950 123.741,595.237 126.158,591.250 128.672 C 587.263 131.186,584.000 133.638,584.000 134.121 C 584.000 134.605,583.360 135.000,582.577 135.000 C 581.794 135.000,579.816 136.125,578.182 137.500 C 576.548 138.875,574.909 140.000,574.539 140.000 C 573.664 140.000,566.601 145.273,566.167 146.250 C 565.983 146.662,565.218 147.000,564.466 147.000 C 563.715 147.000,562.740 147.565,562.300 148.256 C 561.468 149.562,554.495 155.000,553.653 155.000 C 553.388 155.000,551.550 156.575,549.568 158.500 C 547.585 160.425,545.554 162.000,545.053 162.000 C 544.553 162.000,543.548 162.563,542.821 163.250 C 542.095 163.938,539.700 165.817,537.500 167.426 C 533.034 170.693,532.347 171.267,526.087 176.976 C 523.660 179.189,521.353 181.000,520.961 181.000 C 520.312 181.000,518.117 182.893,508.219 191.986 C 506.414 193.644,504.532 195.000,504.036 195.000 C 503.540 195.000,502.856 195.877,502.516 196.949 C 502.176 198.021,501.094 199.153,500.112 199.464 C 499.130 199.776,496.289 202.216,493.798 204.887 C 491.308 207.558,488.746 209.918,488.106 210.131 C 486.536 210.655,449.000 248.161,449.000 249.206 C 449.000 249.660,446.750 252.129,444.000 254.693 C 441.250 257.257,439.000 259.950,439.000 260.678 C 439.000 261.405,438.325 262.000,437.500 262.000 C 436.675 262.000,436.000 262.438,436.000 262.974 C 436.000 263.509,434.087 265.908,431.750 268.305 C 428.140 272.006,419.716 282.054,410.758 293.345 C 409.516 294.910,407.797 297.019,406.938 298.032 C 406.078 299.045,404.503 301.092,403.438 302.581 C 402.372 304.070,400.712 305.999,399.750 306.866 C 398.788 307.734,398.000 308.997,398.000 309.673 C 398.000 310.348,397.391 311.260,396.646 311.700 C 395.901 312.140,394.715 313.597,394.011 314.937 C 392.666 317.495,391.637 318.891,388.750 322.072 C 387.788 323.132,387.000 324.273,387.000 324.606 C 387.000 324.939,385.868 326.626,384.485 328.356 C 383.102 330.085,381.588 331.978,381.120 332.563 C 380.653 333.148,379.699 334.694,379.000 336.000 C 378.301 337.306,376.890 339.275,375.865 340.376 C 374.839 341.476,374.000 342.774,374.000 343.260 C 374.000 343.746,373.438 344.770,372.750 345.537 C 368.304 350.494,367.119 352.252,364.513 357.750 C 363.666 359.538,362.626 361.000,362.202 361.000 C 361.777 361.000,360.096 363.473,358.465 366.497 C 356.834 369.520,355.246 371.995,354.937 371.997 C 354.627 371.998,353.755 373.575,353.000 375.500 C 352.245 377.425,351.345 379.000,351.000 379.000 C 350.655 379.000,349.755 380.575,349.000 382.500 C 348.245 384.425,347.261 386.000,346.813 386.000 C 346.366 386.000,346.000 386.430,346.000 386.956 C 346.000 387.481,344.988 389.407,343.750 391.235 C 342.513 393.063,340.375 396.795,339.000 399.529 C 337.625 402.263,336.274 404.725,335.998 405.000 C 335.723 405.275,334.823 406.850,334.000 408.500 C 333.177 410.150,332.271 411.725,331.988 412.000 C 331.068 412.893,326.000 423.843,326.000 424.937 C 326.000 425.522,325.649 426.000,325.221 426.000 C 324.365 426.000,318.000 438.998,318.000 440.746 C 318.000 441.344,317.663 441.983,317.250 442.167 C 316.153 442.654,309.083 457.647,307.544 462.750 C 307.171 463.987,306.499 465.000,306.051 465.000 C 305.604 465.000,304.701 467.132,304.045 469.737 C 303.389 472.342,302.405 474.749,301.860 475.087 C 300.926 475.664,300.251 477.831,300.077 480.809 C 300.034 481.529,299.617 481.881,299.148 481.592 C 298.280 481.055,296.000 487.407,296.000 490.366 C 296.000 491.265,295.595 492.000,295.100 492.000 C 294.605 492.000,293.660 494.250,293.000 497.000 C 292.340 499.750,291.416 502.000,290.946 502.000 C 290.475 502.000,289.795 503.575,289.434 505.500 C 289.073 507.425,288.434 509.000,288.014 509.000 C 287.594 509.000,286.973 510.386,286.634 512.080 C 286.295 513.774,285.396 516.586,284.635 518.330 C 283.874 520.073,282.698 523.525,282.022 526.000 C 281.346 528.475,280.448 530.950,280.026 531.500 C 279.603 532.050,278.665 534.862,277.940 537.750 C 277.215 540.638,276.315 543.000,275.940 543.000 C 275.565 543.000,274.959 545.250,274.594 548.000 C 274.230 550.750,273.543 553.000,273.068 553.000 C 272.594 553.000,271.703 555.886,271.089 559.413 C 270.474 562.940,269.325 567.072,268.535 568.595 C 267.745 570.118,266.799 573.757,266.434 576.682 C 266.069 579.607,265.433 582.000,265.022 582.000 C 264.611 582.000,263.714 585.487,263.028 589.750 C 262.343 594.013,261.369 597.759,260.864 598.075 C 260.360 598.392,259.671 600.979,259.334 603.825 C 258.997 606.671,258.391 609.000,257.988 609.000 C 257.294 609.000,256.965 610.896,255.385 624.000 C 255.020 627.025,254.385 629.725,253.974 630.000 C 253.563 630.275,252.636 634.775,251.915 640.000 C 251.194 645.225,250.312 649.725,249.954 650.000 C 249.356 650.460,249.003 653.286,247.013 673.500 C 246.633 677.350,246.196 680.050,246.040 679.500 C 245.545 677.752,242.921 697.217,242.670 704.500 C 242.537 708.350,242.160 711.950,241.830 712.500 C 241.501 713.050,240.905 723.288,240.505 735.250 C 240.106 747.213,239.378 757.000,238.889 757.000 C 237.698 757.000,237.725 811.734,238.917 812.167 C 239.421 812.350,240.160 822.300,240.558 834.278 C 240.957 846.257,241.647 856.282,242.091 856.556 C 242.536 856.831,242.638 859.264,242.318 861.964 C 241.998 864.663,242.083 867.688,242.507 868.686 C 243.425 870.847,243.474 871.180,244.448 881.750 C 244.866 886.288,245.552 890.000,245.973 890.000 C 246.393 890.000,247.010 893.263,247.343 897.250 C 248.856 915.350,249.325 919.000,250.134 919.000 C 250.610 919.000,251.000 920.636,251.000 922.635 C 251.000 927.391,253.152 939.000,254.033 939.000 C 254.662 939.000,255.009 941.125,256.689 955.250 C 257.000 957.863,257.585 960.000,257.988 960.000 C 258.391 960.000,258.997 962.329,259.334 965.175 C 259.671 968.021,260.353 970.608,260.849 970.925 C 261.345 971.241,262.298 974.762,262.966 978.750 C 263.634 982.737,264.532 986.000,264.961 986.000 C 265.390 986.000,266.035 988.596,266.394 991.768 C 266.753 994.941,267.666 998.729,268.422 1000.186 C 269.178 1001.644,270.117 1004.786,270.509 1007.168 C 270.902 1009.551,272.072 1013.388,273.111 1015.695 C 274.150 1018.002,275.000 1021.265,275.000 1022.945 C 275.000 1024.625,275.365 1026.000,275.811 1026.000 C 276.257 1026.000,277.215 1028.362,277.940 1031.250 C 278.665 1034.138,279.603 1036.950,280.026 1037.500 C 280.448 1038.050,281.346 1040.525,282.022 1043.000 C 282.698 1045.475,283.874 1048.927,284.635 1050.670 C 285.396 1052.414,286.295 1055.226,286.634 1056.920 C 286.973 1058.614,287.644 1060.000,288.125 1060.000 C 288.606 1060.000,289.000 1060.700,289.000 1061.555 C 289.000 1062.410,289.911 1065.110,291.025 1067.555 C 292.139 1070.000,293.320 1073.350,293.650 1075.000 C 293.980 1076.650,294.550 1078.000,294.918 1078.000 C 295.285 1078.000,296.127 1080.025,296.789 1082.500 C 297.451 1084.975,298.394 1087.000,298.885 1087.000 C 299.376 1087.000,300.073 1088.575,300.434 1090.500 C 300.795 1092.425,301.467 1094.000,301.927 1094.000 C 302.386 1094.000,303.272 1096.025,303.895 1098.499 C 304.519 1100.974,305.920 1104.461,307.010 1106.249 C 308.101 1108.037,308.994 1110.287,308.996 1111.250 C 308.998 1112.213,309.450 1113.000,310.000 1113.000 C 310.550 1113.000,311.000 1113.608,311.000 1114.351 C 311.000 1115.802,315.746 1125.171,316.901 1126.000 C 317.284 1126.275,318.156 1128.412,318.839 1130.750 C 319.522 1133.088,320.456 1135.000,320.915 1135.000 C 321.374 1135.000,322.009 1136.296,322.326 1137.879 C 322.643 1139.463,323.540 1141.397,324.319 1142.176 C 325.098 1142.956,326.078 1144.697,326.496 1146.047 C 326.913 1147.396,328.998 1151.451,331.128 1155.058 C 333.257 1158.665,335.000 1162.115,335.000 1162.725 C 335.000 1163.335,335.338 1163.983,335.750 1164.167 C 336.163 1164.350,337.400 1166.262,338.500 1168.417 C 341.002 1173.316,343.479 1177.629,346.014 1181.500 C 347.095 1183.150,348.537 1185.625,349.219 1187.000 C 349.901 1188.375,350.694 1189.725,350.981 1190.000 C 351.268 1190.275,352.177 1191.850,353.000 1193.500 C 353.823 1195.150,354.744 1196.725,355.046 1197.000 C 355.349 1197.275,356.895 1199.750,358.483 1202.500 C 360.070 1205.250,361.932 1208.065,362.619 1208.756 C 363.307 1209.447,364.154 1210.909,364.502 1212.006 C 364.850 1213.103,365.524 1214.000,366.000 1214.000 C 366.476 1214.000,367.118 1214.787,367.428 1215.750 C 367.924 1217.292,378.366 1232.759,380.805 1235.563 C 381.313 1236.148,382.301 1237.694,383.000 1239.000 C 384.480 1241.765,385.820 1243.499,388.250 1245.793 C 389.212 1246.701,390.000 1248.034,390.000 1248.754 C 390.000 1249.474,390.658 1250.315,391.462 1250.624 C 392.266 1250.932,393.179 1251.990,393.492 1252.974 C 393.804 1253.957,394.862 1255.687,395.842 1256.818 C 396.823 1257.948,398.497 1260.077,399.562 1261.547 C 400.628 1263.018,401.950 1264.745,402.500 1265.385 C 403.050 1266.026,405.052 1268.563,406.948 1271.025 C 408.845 1273.486,410.982 1275.860,411.698 1276.300 C 412.414 1276.740,413.000 1277.730,413.000 1278.500 C 413.000 1279.270,413.563 1280.260,414.250 1280.700 C 415.267 1281.351,421.006 1287.943,426.489 1294.757 C 429.129 1298.038,435.159 1304.668,441.750 1311.536 C 445.738 1315.691,449.000 1319.419,449.000 1319.821 C 449.000 1320.748,487.714 1359.430,490.780 1361.567 C 492.035 1362.441,495.276 1365.371,497.983 1368.078 C 500.690 1370.785,503.186 1373.000,503.531 1373.000 C 503.875 1373.000,505.900 1374.688,508.030 1376.750 C 511.901 1380.498,516.875 1384.687,519.055 1386.034 C 520.195 1386.738,518.325 1390.613,515.328 1393.756 C 514.670 1394.447,513.846 1395.909,513.498 1397.006 C 513.150 1398.103,512.470 1399.000,511.987 1399.000 C 511.108 1399.000,509.397 1401.731,506.561 1407.658 C 505.730 1409.395,504.689 1410.970,504.248 1411.158 C 503.375 1411.531,494.000 1425.574,494.000 1426.510 C 494.000 1427.064,493.189 1428.159,490.000 1431.906 C 488.446 1433.733,486.554 1436.764,484.388 1440.900 C 483.697 1442.221,482.748 1443.571,482.279 1443.900 C 481.810 1444.230,479.977 1446.750,478.206 1449.500 C 474.150 1455.798,473.042 1457.440,470.250 1461.288 C 469.013 1462.993,468.000 1464.770,468.000 1465.236 C 468.000 1465.702,467.100 1467.050,466.000 1468.230 C 464.900 1469.411,464.000 1470.967,464.000 1471.689 C 464.000 1472.410,463.539 1473.000,462.975 1473.000 C 462.412 1473.000,461.512 1474.013,460.977 1475.250 C 460.166 1477.123,455.183 1484.674,452.233 1488.500 C 451.809 1489.050,450.020 1491.750,448.258 1494.500 C 446.495 1497.250,444.703 1499.950,444.276 1500.500 C 443.849 1501.050,442.151 1503.525,440.503 1506.000 C 438.854 1508.475,437.254 1510.725,436.946 1511.000 C 436.638 1511.275,435.808 1512.930,435.102 1514.678 C 434.395 1516.426,433.183 1518.100,432.408 1518.397 C 431.634 1518.694,431.000 1519.626,431.000 1520.469 C 431.000 1521.311,430.536 1522.000,429.969 1522.000 C 429.401 1522.000,428.636 1522.787,428.267 1523.750 C 427.645 1525.374,424.046 1531.201,422.245 1533.500 C 420.021 1536.338,409.402 1552.681,408.782 1554.218 C 408.387 1555.198,407.684 1556.000,407.219 1556.000 C 406.754 1556.000,405.763 1557.556,405.016 1559.458 C 404.270 1561.360,403.061 1563.146,402.330 1563.427 C 401.598 1563.708,401.000 1564.626,401.000 1565.469 C 401.000 1566.311,400.580 1567.000,400.067 1567.000 C 399.554 1567.000,398.867 1567.845,398.539 1568.878 C 398.211 1569.910,396.831 1572.048,395.473 1573.628 C 394.114 1575.207,393.002 1577.063,393.001 1577.750 C 393.001 1578.438,392.580 1579.000,392.067 1579.000 C 391.554 1579.000,390.850 1579.897,390.502 1580.994 C 390.154 1582.091,389.326 1583.553,388.662 1584.244 C 387.999 1584.935,385.725 1588.200,383.610 1591.500 C 381.496 1594.800,378.468 1599.374,376.883 1601.663 C 375.297 1603.953,374.000 1606.268,374.000 1606.806 C 374.000 1607.345,373.325 1608.045,372.500 1608.362 C 371.675 1608.678,371.000 1609.626,371.000 1610.469 C 371.000 1611.311,370.633 1612.000,370.185 1612.000 C 369.737 1612.000,368.594 1613.462,367.644 1615.250 C 364.560 1621.056,363.197 1623.259,362.300 1623.885 C 360.946 1624.830,352.000 1638.799,352.000 1639.968 C 352.000 1640.535,351.539 1641.000,350.975 1641.000 C 350.412 1641.000,349.523 1642.125,349.000 1643.500 C 348.477 1644.875,347.588 1646.000,347.025 1646.000 C 346.461 1646.000,346.000 1646.460,346.000 1647.021 C 346.000 1647.959,341.239 1655.841,339.972 1657.000 C 339.672 1657.275,337.977 1659.750,336.206 1662.500 C 332.150 1668.798,331.042 1670.440,328.250 1674.288 C 327.013 1675.993,326.000 1677.751,326.000 1678.194 C 326.000 1678.637,325.100 1679.900,324.000 1681.000 C 322.900 1682.100,322.000 1683.675,322.000 1684.500 C 322.000 1685.325,321.539 1686.000,320.975 1686.000 C 320.412 1686.000,319.523 1687.125,319.000 1688.500 C 318.477 1689.875,317.588 1691.000,317.025 1691.000 C 316.461 1691.000,316.000 1691.430,316.000 1691.956 C 316.000 1692.764,313.019 1697.752,310.264 1701.555 C 309.844 1702.135,308.931 1703.485,308.236 1704.555 C 302.047 1714.076,300.965 1715.639,298.780 1718.212 C 297.834 1719.326,296.791 1721.084,296.462 1722.119 C 296.134 1723.153,295.536 1724.000,295.134 1724.000 C 294.731 1724.000,293.848 1725.532,293.171 1727.405 C 292.494 1729.277,291.278 1731.063,290.470 1731.373 C 289.661 1731.683,289.000 1732.626,289.000 1733.469 C 289.000 1734.311,288.663 1735.008,288.250 1735.019 C 287.837 1735.029,286.150 1737.317,284.500 1740.103 C 282.850 1742.888,281.047 1745.692,280.492 1746.334 C 279.938 1746.975,277.242 1750.875,274.500 1755.000 C 271.758 1759.125,268.949 1763.095,268.258 1763.821 C 267.566 1764.548,267.000 1765.591,267.000 1766.138 C 267.000 1766.686,265.875 1768.608,264.500 1770.411 C 263.125 1772.214,262.000 1774.161,262.000 1774.737 C 262.000 1775.314,261.325 1776.045,260.500 1776.362 C 259.675 1776.678,259.000 1777.578,259.000 1778.362 C 259.000 1779.145,258.383 1780.023,257.629 1780.312 C 256.874 1780.602,255.943 1782.092,255.558 1783.625 C 255.174 1785.157,253.991 1787.019,252.929 1787.762 C 251.868 1788.505,251.000 1789.763,251.000 1790.557 C 251.000 1791.351,250.580 1792.000,250.067 1792.000 C 249.554 1792.000,248.872 1792.829,248.550 1793.843 C 248.228 1794.856,246.285 1797.975,244.232 1800.773 C 242.180 1803.571,238.700 1808.870,236.500 1812.548 C 234.300 1816.226,231.713 1819.957,230.750 1820.840 C 229.788 1821.722,229.000 1823.019,229.000 1823.722 C 229.000 1824.425,228.539 1825.000,227.975 1825.000 C 227.412 1825.000,226.520 1826.131,225.995 1827.514 C 225.143 1829.754,221.376 1835.681,219.965 1837.000 C 219.109 1837.801,212.407 1848.262,210.996 1851.000 C 210.288 1852.375,209.099 1853.860,208.354 1854.300 C 207.609 1854.740,207.000 1855.513,207.000 1856.018 C 207.000 1856.838,199.307 1868.748,197.969 1870.000 C 197.675 1870.275,195.889 1872.975,194.000 1876.000 C 192.111 1879.025,190.325 1881.725,190.030 1882.000 C 188.591 1883.344,184.000 1890.744,184.000 1891.720 C 184.000 1892.333,183.662 1892.983,183.250 1893.167 C 181.974 1893.734,177.307 1903.309,176.507 1907.000 C 176.090 1908.925,175.321 1910.773,174.799 1911.106 C 174.276 1911.439,173.590 1913.689,173.274 1916.106 C 172.959 1918.523,172.205 1920.820,171.600 1921.212 C 169.319 1922.689,169.673 1970.938,171.954 1969.528 C 172.390 1969.259,173.045 1971.280,173.408 1974.019 C 173.772 1976.759,174.447 1979.000,174.909 1979.000 C 175.372 1979.000,176.035 1980.425,176.383 1982.166 C 176.981 1985.156,181.836 1995.920,183.073 1997.000 C 183.388 1997.275,183.896 1998.175,184.201 1999.000 C 185.267 2001.877,194.349 2013.224,200.082 2018.841 C 209.296 2027.870,213.956 2031.132,226.000 2036.989 C 229.575 2038.727,233.694 2040.790,235.154 2041.574 C 236.614 2042.359,238.725 2043.000,239.845 2043.000 C 240.965 2043.000,242.113 2043.374,242.396 2043.832 C 243.505 2045.626,258.250 2047.321,273.000 2047.349 C 288.118 2047.378,305.446 2045.531,304.495 2043.992 C 304.234 2043.570,306.041 2042.921,308.510 2042.551 C 310.980 2042.180,313.000 2041.485,313.000 2041.006 C 313.000 2040.527,314.013 2039.852,315.250 2039.506 C 318.579 2038.577,328.000 2033.861,328.000 2033.125 C 328.000 2032.775,329.241 2031.939,330.757 2031.268 C 339.189 2027.535,353.243 2012.455,364.558 1995.000 C 367.232 1990.875,369.673 1987.275,369.983 1987.000 C 371.002 1986.095,374.056 1981.000,373.579 1981.000 C 373.323 1981.000,374.437 1979.550,376.056 1977.777 C 377.675 1976.005,379.000 1974.185,379.000 1973.734 C 379.000 1973.284,380.800 1970.478,383.000 1967.500 C 385.200 1964.522,387.000 1961.823,387.000 1961.502 C 387.000 1960.829,390.902 1955.199,392.750 1953.206 C 393.437 1952.464,394.000 1951.509,394.000 1951.084 C 394.000 1950.659,395.124 1949.004,396.499 1947.406 C 397.873 1945.807,398.998 1943.938,398.999 1943.250 C 398.999 1942.563,399.366 1942.000,399.813 1942.000 C 400.261 1942.000,401.245 1940.425,402.000 1938.500 C 402.755 1936.575,403.746 1935.000,404.201 1935.000 C 404.657 1935.000,405.896 1933.538,406.954 1931.750 C 408.013 1929.963,410.724 1925.800,412.980 1922.500 C 420.141 1912.023,427.672 1900.297,428.315 1898.621 C 428.657 1897.729,429.401 1897.000,429.969 1897.000 C 430.536 1897.000,431.000 1896.520,431.000 1895.933 C 431.000 1895.347,432.125 1893.392,433.500 1891.589 C 434.875 1889.786,436.000 1887.791,436.000 1887.156 C 436.000 1886.520,436.383 1886.000,436.851 1886.000 C 437.619 1886.000,444.000 1876.531,444.000 1875.391 C 444.000 1875.130,444.458 1874.372,445.019 1873.708 C 448.866 1869.146,450.000 1867.600,450.000 1866.918 C 450.000 1866.492,450.562 1865.536,451.250 1864.794 C 453.618 1862.240,457.041 1857.023,457.995 1854.514 C 458.520 1853.131,459.412 1852.000,459.975 1852.000 C 460.539 1852.000,461.000 1851.520,461.000 1850.933 C 461.000 1850.347,462.125 1848.392,463.500 1846.589 C 464.875 1844.786,466.000 1842.829,466.000 1842.239 C 466.000 1841.649,466.337 1841.017,466.750 1840.833 C 467.659 1840.429,474.000 1831.430,474.000 1830.545 C 474.000 1830.199,474.938 1828.923,476.085 1827.708 C 477.232 1826.494,478.869 1824.150,479.724 1822.500 C 480.579 1820.850,481.569 1819.275,481.922 1819.000 C 482.276 1818.725,484.118 1816.025,486.015 1813.000 C 487.912 1809.975,489.809 1807.350,490.232 1807.167 C 490.654 1806.983,491.000 1806.266,491.000 1805.572 C 491.000 1804.878,491.889 1803.506,492.974 1802.523 C 494.060 1801.540,495.230 1799.851,495.573 1798.769 C 495.917 1797.688,496.941 1796.017,497.849 1795.057 C 499.194 1793.635,505.311 1784.474,510.500 1776.112 C 511.050 1775.225,511.729 1774.275,512.009 1774.000 C 513.331 1772.702,518.000 1764.926,518.000 1764.021 C 518.000 1763.460,518.465 1763.000,519.032 1763.000 C 519.600 1763.000,520.387 1762.197,520.782 1761.216 C 521.528 1759.361,533.046 1741.878,534.100 1741.000 C 534.430 1740.725,535.279 1739.403,535.986 1738.063 C 536.692 1736.723,537.672 1735.148,538.162 1734.563 C 538.652 1733.978,540.487 1731.250,542.239 1728.500 C 543.992 1725.750,545.730 1723.275,546.101 1723.000 C 546.473 1722.725,548.064 1720.367,549.638 1717.760 C 551.212 1715.152,554.131 1710.652,556.125 1707.760 C 561.885 1699.401,569.411 1687.938,570.487 1685.884 C 571.030 1684.848,571.818 1684.000,572.237 1684.000 C 572.657 1684.000,573.000 1683.502,573.000 1682.894 C 573.000 1682.286,574.125 1680.452,575.500 1678.818 C 576.875 1677.184,578.000 1675.206,578.000 1674.423 C 578.000 1673.640,578.371 1673.000,578.825 1673.000 C 579.279 1673.000,581.852 1669.513,584.543 1665.250 C 587.233 1660.987,589.792 1657.050,590.229 1656.500 C 592.170 1654.056,599.703 1642.217,600.289 1640.690 C 600.645 1639.761,601.401 1639.000,601.969 1639.000 C 602.536 1639.000,603.000 1638.520,603.000 1637.933 C 603.000 1636.913,607.120 1630.958,609.750 1628.179 C 610.437 1627.452,611.000 1626.409,611.000 1625.862 C 611.000 1625.314,612.125 1623.392,613.500 1621.589 C 614.875 1619.786,616.000 1617.997,616.000 1617.614 C 616.000 1617.230,616.938 1615.923,618.085 1614.708 C 619.232 1613.494,620.869 1611.150,621.724 1609.500 C 622.579 1607.850,623.558 1606.275,623.899 1606.000 C 624.880 1605.208,629.573 1597.680,630.289 1595.750 C 630.645 1594.787,631.401 1594.000,631.969 1594.000 C 632.536 1594.000,633.000 1593.502,633.000 1592.894 C 633.000 1592.286,634.125 1590.452,635.500 1588.818 C 636.875 1587.184,638.000 1585.244,638.000 1584.507 C 638.000 1583.770,638.386 1583.017,638.857 1582.833 C 639.329 1582.650,642.808 1577.775,646.589 1572.000 C 650.370 1566.225,653.810 1561.050,654.234 1560.500 C 656.620 1557.403,662.336 1548.815,664.971 1544.367 C 666.644 1541.544,668.685 1538.677,669.506 1537.995 C 670.328 1537.313,671.000 1536.342,671.000 1535.837 C 671.000 1534.910,674.497 1529.640,676.684 1527.271 C 677.336 1526.565,678.154 1525.091,678.502 1523.994 C 678.850 1522.897,679.500 1522.000,679.946 1522.000 C 680.392 1522.000,681.355 1520.537,682.086 1518.750 C 682.817 1516.963,684.078 1514.825,684.888 1514.000 C 685.698 1513.175,688.313 1509.484,690.698 1505.798 C 695.307 1498.675,696.835 1497.161,697.862 1498.700 C 698.823 1500.140,705.126 1503.040,706.052 1502.468 C 706.498 1502.192,707.145 1502.426,707.492 1502.986 C 708.234 1504.187,715.405 1507.562,719.285 1508.535 C 720.778 1508.910,722.000 1509.568,722.000 1509.997 C 722.000 1510.426,723.561 1511.070,725.468 1511.428 C 727.375 1511.786,729.524 1512.667,730.243 1513.386 C 730.962 1514.105,733.291 1515.020,735.419 1515.419 C 737.547 1515.818,739.889 1516.746,740.624 1517.481 C 741.359 1518.216,743.856 1519.138,746.172 1519.529 C 748.488 1519.920,750.950 1520.807,751.642 1521.499 C 752.334 1522.192,754.948 1523.065,757.450 1523.440 C 759.953 1523.816,762.000 1524.474,762.000 1524.903 C 762.000 1525.842,768.873 1528.000,771.866 1528.000 C 773.040 1528.000,774.000 1528.445,774.000 1528.988 C 774.000 1529.532,775.800 1530.264,778.000 1530.616 C 780.200 1530.968,782.000 1531.648,782.000 1532.128 C 782.000 1532.608,782.879 1533.000,783.953 1533.000 C 785.027 1533.000,787.165 1533.506,788.703 1534.125 C 790.241 1534.743,792.400 1535.583,793.500 1535.991 C 796.768 1537.203,804.874 1539.000,807.073 1539.000 C 808.198 1539.000,808.875 1539.393,808.578 1539.874 C 808.281 1540.354,810.384 1541.059,813.250 1541.439 C 816.117 1541.819,818.706 1542.525,819.004 1543.007 C 819.302 1543.489,822.426 1544.347,825.947 1544.914 C 829.467 1545.481,832.607 1546.315,832.924 1546.767 C 833.241 1547.219,837.541 1548.159,842.479 1548.856 C 847.418 1549.553,851.695 1550.506,851.984 1550.974 C 852.273 1551.443,856.086 1552.323,860.457 1552.931 C 864.828 1553.539,868.651 1554.435,868.953 1554.923 C 869.254 1555.412,873.663 1556.136,878.751 1556.534 C 883.838 1556.932,888.000 1557.701,888.000 1558.242 C 888.000 1558.784,889.339 1559.030,890.976 1558.790 C 892.612 1558.550,894.075 1558.721,894.226 1559.171 C 894.377 1559.620,898.648 1560.282,903.718 1560.641 C 908.788 1561.001,912.737 1561.616,912.495 1562.008 C 911.942 1562.903,920.651 1563.827,937.461 1564.658 C 944.633 1565.012,950.725 1565.623,951.000 1566.016 C 953.741 1569.926,1094.259 1569.926,1097.000 1566.016 C 1097.275 1565.623,1103.367 1565.012,1110.539 1564.658 C 1127.349 1563.827,1136.058 1562.903,1135.505 1562.008 C 1135.263 1561.616,1139.212 1561.001,1144.282 1560.641 C 1149.352 1560.282,1153.623 1559.620,1153.774 1559.171 C 1153.925 1558.721,1155.388 1558.550,1157.024 1558.790 C 1158.805 1559.052,1160.000 1558.780,1160.000 1558.113 C 1160.000 1557.501,1161.509 1557.000,1163.353 1557.000 C 1169.487 1557.000,1178.952 1555.731,1178.483 1554.972 C 1178.039 1554.254,1180.318 1553.810,1191.731 1552.396 C 1194.608 1552.039,1196.758 1551.418,1196.510 1551.016 C 1196.045 1550.263,1207.940 1548.000,1212.359 1548.000 C 1213.720 1548.000,1214.986 1547.543,1215.172 1546.984 C 1215.358 1546.425,1218.418 1545.499,1221.971 1544.927 C 1225.524 1544.355,1228.897 1543.503,1229.466 1543.033 C 1230.035 1542.563,1232.300 1541.855,1234.500 1541.459 C 1236.700 1541.063,1238.950 1540.404,1239.500 1539.995 C 1240.050 1539.586,1241.850 1538.997,1243.500 1538.686 C 1249.589 1537.539,1252.549 1536.830,1254.500 1536.049 C 1255.600 1535.609,1257.759 1534.743,1259.297 1534.125 C 1260.835 1533.506,1262.973 1533.000,1264.047 1533.000 C 1265.121 1533.000,1266.000 1532.550,1266.000 1532.000 C 1266.000 1531.450,1267.318 1531.000,1268.929 1531.000 C 1270.539 1531.000,1272.532 1530.325,1273.357 1529.500 C 1274.182 1528.675,1275.625 1528.000,1276.563 1528.000 C 1279.215 1528.000,1286.000 1525.773,1286.000 1524.903 C 1286.000 1524.474,1288.047 1523.816,1290.550 1523.440 C 1293.052 1523.065,1295.720 1522.137,1296.478 1521.379 C 1297.237 1520.621,1298.722 1520.000,1299.779 1520.000 C 1302.497 1520.000,1308.000 1517.967,1308.000 1516.963 C 1308.000 1516.501,1310.025 1515.819,1312.500 1515.448 C 1314.975 1515.077,1317.000 1514.372,1317.000 1513.883 C 1317.000 1513.393,1319.025 1512.451,1321.500 1511.789 C 1323.975 1511.127,1326.000 1510.270,1326.000 1509.885 C 1326.000 1509.500,1328.250 1508.608,1331.000 1507.903 C 1333.750 1507.199,1336.000 1506.257,1336.000 1505.811 C 1336.000 1505.365,1336.620 1505.000,1337.378 1505.000 C 1338.135 1505.000,1339.311 1504.330,1339.991 1503.511 C 1340.671 1502.692,1341.612 1502.260,1342.084 1502.552 C 1343.050 1503.149,1349.157 1500.252,1350.138 1498.732 C 1350.489 1498.189,1351.268 1498.047,1351.868 1498.419 C 1353.255 1499.275,1363.000 1513.736,1363.000 1514.936 C 1363.000 1515.430,1363.338 1515.983,1363.750 1516.167 C 1364.393 1516.452,1374.537 1531.199,1377.500 1536.154 C 1379.018 1538.694,1392.833 1559.359,1393.775 1560.500 C 1394.229 1561.050,1394.902 1562.287,1395.269 1563.250 C 1395.637 1564.213,1396.371 1565.000,1396.901 1565.000 C 1397.431 1565.000,1398.150 1565.897,1398.498 1566.994 C 1398.846 1568.091,1399.671 1569.553,1400.331 1570.244 C 1400.990 1570.935,1403.081 1574.087,1404.976 1577.250 C 1406.872 1580.412,1408.777 1583.000,1409.211 1583.000 C 1409.645 1583.000,1410.000 1583.480,1410.000 1584.067 C 1410.000 1584.653,1411.125 1586.608,1412.500 1588.411 C 1413.875 1590.214,1415.000 1592.209,1415.000 1592.844 C 1415.000 1593.480,1415.464 1594.000,1416.031 1594.000 C 1416.599 1594.000,1417.347 1594.787,1417.695 1595.750 C 1418.254 1597.299,1425.705 1608.707,1427.002 1610.000 C 1427.277 1610.275,1428.141 1611.737,1428.921 1613.250 C 1429.700 1614.763,1430.712 1616.000,1431.169 1616.000 C 1431.626 1616.000,1432.000 1616.429,1432.000 1616.953 C 1432.000 1618.368,1441.219 1632.000,1442.176 1632.000 C 1442.629 1632.000,1443.000 1632.520,1443.000 1633.156 C 1443.000 1633.791,1444.125 1635.786,1445.500 1637.589 C 1446.875 1639.392,1448.000 1641.121,1448.000 1641.431 C 1448.000 1641.741,1449.575 1644.188,1451.500 1646.867 C 1453.425 1649.547,1455.000 1652.097,1455.000 1652.536 C 1455.000 1652.974,1455.684 1654.045,1456.520 1654.916 C 1457.757 1656.204,1463.320 1664.337,1469.521 1673.922 C 1470.082 1674.790,1474.581 1681.575,1479.518 1689.000 C 1484.454 1696.425,1488.945 1703.264,1489.497 1704.198 C 1492.583 1709.424,1501.582 1722.000,1502.235 1722.000 C 1502.656 1722.000,1503.000 1722.511,1503.000 1723.135 C 1503.000 1723.759,1506.487 1729.491,1510.750 1735.873 C 1519.059 1748.313,1518.983 1748.196,1523.500 1755.478 C 1525.150 1758.137,1527.287 1761.018,1528.250 1761.879 C 1529.213 1762.740,1530.000 1763.997,1530.000 1764.673 C 1530.000 1765.348,1530.589 1766.260,1531.309 1766.700 C 1532.029 1767.140,1533.208 1768.963,1533.930 1770.750 C 1534.652 1772.537,1535.638 1774.000,1536.121 1774.000 C 1536.605 1774.000,1537.000 1774.498,1537.000 1775.106 C 1537.000 1775.714,1538.013 1777.451,1539.250 1778.967 C 1541.396 1781.595,1546.009 1788.698,1548.805 1793.676 C 1549.522 1794.954,1550.535 1796.000,1551.055 1796.000 C 1551.575 1796.000,1552.000 1796.386,1552.000 1796.859 C 1552.000 1797.656,1567.709 1821.889,1568.947 1823.000 C 1569.253 1823.275,1570.141 1824.737,1570.921 1826.250 C 1571.700 1827.762,1572.712 1829.000,1573.169 1829.000 C 1573.626 1829.000,1574.000 1829.520,1574.000 1830.156 C 1574.000 1830.791,1575.046 1832.704,1576.324 1834.406 C 1577.602 1836.108,1578.937 1838.287,1579.292 1839.250 C 1579.647 1840.213,1580.401 1841.000,1580.969 1841.000 C 1581.536 1841.000,1582.000 1841.653,1582.000 1842.450 C 1582.000 1843.248,1582.787 1844.359,1583.750 1844.920 C 1584.713 1845.481,1585.125 1845.953,1584.666 1845.970 C 1584.207 1845.986,1585.220 1847.752,1586.916 1849.894 C 1588.612 1852.036,1590.000 1854.102,1590.000 1854.485 C 1590.000 1855.073,1596.775 1865.290,1599.290 1868.494 C 1599.725 1869.047,1602.322 1873.100,1605.063 1877.500 C 1607.803 1881.900,1610.485 1885.650,1611.023 1885.833 C 1611.560 1886.017,1612.000 1886.649,1612.000 1887.239 C 1612.000 1887.829,1613.125 1889.786,1614.500 1891.589 C 1615.875 1893.392,1617.000 1895.347,1617.000 1895.933 C 1617.000 1896.520,1617.464 1897.000,1618.031 1897.000 C 1618.599 1897.000,1619.364 1897.787,1619.732 1898.750 C 1620.099 1899.712,1622.785 1904.005,1625.700 1908.289 C 1628.615 1912.572,1631.000 1916.292,1631.000 1916.554 C 1631.000 1916.816,1633.250 1920.124,1636.000 1923.905 C 1638.750 1927.686,1641.000 1931.275,1641.000 1931.881 C 1641.000 1932.487,1641.900 1933.545,1643.000 1934.232 C 1644.100 1934.919,1645.000 1935.837,1645.000 1936.271 C 1645.000 1936.706,1648.487 1942.332,1652.750 1948.775 C 1657.013 1955.217,1660.823 1961.278,1661.218 1962.244 C 1661.613 1963.210,1662.400 1964.000,1662.968 1964.000 C 1663.535 1964.000,1664.000 1964.520,1664.000 1965.156 C 1664.000 1965.791,1665.125 1967.786,1666.500 1969.589 C 1667.875 1971.392,1669.000 1973.141,1669.000 1973.475 C 1669.000 1974.077,1670.068 1975.512,1673.000 1978.852 C 1673.825 1979.792,1675.174 1981.897,1675.998 1983.530 C 1676.823 1985.164,1677.741 1986.725,1678.039 1987.000 C 1678.337 1987.275,1680.768 1990.875,1683.442 1995.000 C 1694.729 2012.413,1706.464 2025.049,1716.876 2031.000 C 1718.319 2031.825,1719.840 2033.027,1720.256 2033.672 C 1720.672 2034.316,1722.359 2035.140,1724.006 2035.501 C 1725.653 2035.863,1727.000 2036.573,1727.000 2037.079 C 1727.000 2037.586,1727.563 2038.004,1728.250 2038.009 C 1728.938 2038.014,1731.750 2039.125,1734.500 2040.478 C 1737.250 2041.831,1740.539 2042.952,1741.809 2042.969 C 1743.079 2042.986,1743.888 2043.372,1743.607 2043.828 C 1742.566 2045.511,1759.755 2047.385,1775.500 2047.305 C 1790.925 2047.226,1804.884 2045.753,1805.975 2044.089 C 1806.264 2043.649,1808.188 2042.978,1810.250 2042.599 C 1812.313 2042.220,1814.000 2041.551,1814.000 2041.113 C 1814.000 2040.675,1815.872 2039.756,1818.159 2039.070 C 1820.447 2038.385,1822.954 2037.189,1823.731 2036.412 C 1824.507 2035.635,1826.025 2035.000,1827.103 2035.000 C 1828.181 2035.000,1829.322 2034.325,1829.638 2033.500 C 1829.955 2032.675,1830.646 2032.000,1831.174 2032.000 C 1831.991 2032.000,1835.834 2029.395,1840.764 2025.500 C 1847.875 2019.881,1864.000 2001.031,1864.000 1998.337 C 1864.000 1997.602,1864.366 1997.000,1864.813 1997.000 C 1865.261 1997.000,1866.245 1995.425,1867.000 1993.500 C 1867.755 1991.575,1868.739 1990.000,1869.187 1990.000 C 1869.634 1990.000,1870.000 1989.300,1870.000 1988.445 C 1870.000 1987.590,1870.858 1985.002,1871.906 1982.695 C 1872.954 1980.388,1874.129 1976.367,1874.518 1973.760 C 1874.906 1971.153,1875.587 1969.245,1876.031 1969.519 C 1878.324 1970.936,1878.692 1922.696,1876.400 1921.212 C 1875.795 1920.820,1875.059 1918.651,1874.764 1916.392 C 1874.469 1914.132,1873.466 1910.532,1872.535 1908.392 C 1869.261 1900.867,1865.492 1893.497,1864.750 1893.167 C 1864.338 1892.983,1864.000 1892.347,1864.000 1891.752 C 1864.000 1890.777,1851.972 1872.164,1849.513 1869.334 C 1848.956 1868.692,1847.150 1865.888,1845.500 1863.103 C 1843.850 1860.317,1842.162 1858.029,1841.750 1858.019 C 1841.338 1858.008,1841.000 1857.347,1841.000 1856.550 C 1841.000 1855.752,1840.437 1854.740,1839.748 1854.300 C 1839.060 1853.860,1837.822 1852.150,1836.998 1850.500 C 1836.174 1848.850,1834.713 1846.628,1833.750 1845.561 C 1832.788 1844.495,1832.000 1843.226,1832.000 1842.740 C 1832.000 1842.254,1831.438 1841.269,1830.750 1840.551 C 1829.421 1839.162,1828.857 1838.349,1823.780 1830.500 C 1822.001 1827.750,1820.198 1825.350,1819.773 1825.167 C 1819.348 1824.983,1819.000 1824.351,1819.000 1823.761 C 1819.000 1823.171,1817.875 1821.214,1816.500 1819.411 C 1815.125 1817.608,1814.000 1815.878,1814.000 1815.567 C 1814.000 1815.255,1813.274 1814.213,1812.387 1813.250 C 1811.500 1812.287,1808.804 1808.350,1806.396 1804.500 C 1800.832 1795.602,1799.784 1794.052,1798.250 1792.449 C 1797.563 1791.731,1797.000 1790.686,1797.000 1790.128 C 1797.000 1789.570,1796.190 1788.525,1795.200 1787.807 C 1794.210 1787.088,1792.805 1785.038,1792.078 1783.250 C 1791.352 1781.463,1790.362 1780.000,1789.879 1780.000 C 1789.395 1780.000,1789.000 1779.478,1789.000 1778.841 C 1789.000 1778.203,1787.263 1775.381,1785.140 1772.569 C 1783.017 1769.757,1780.961 1766.453,1780.572 1765.228 C 1780.183 1764.003,1779.476 1763.000,1779.000 1763.000 C 1778.524 1763.000,1777.850 1762.103,1777.502 1761.006 C 1777.154 1759.909,1776.336 1758.447,1775.684 1757.756 C 1775.033 1757.065,1773.150 1754.475,1771.500 1752.000 C 1769.850 1749.525,1768.050 1746.975,1767.500 1746.334 C 1766.950 1745.692,1765.150 1742.888,1763.500 1740.103 C 1761.850 1737.317,1760.162 1735.029,1759.750 1735.019 C 1759.338 1735.008,1758.994 1734.438,1758.987 1733.750 C 1758.979 1733.063,1758.062 1731.375,1756.949 1730.000 C 1754.627 1727.132,1740.995 1706.713,1739.513 1703.885 C 1738.970 1702.848,1738.182 1702.000,1737.763 1702.000 C 1737.343 1702.000,1737.000 1701.511,1737.000 1700.913 C 1737.000 1699.970,1732.448 1692.921,1729.500 1689.298 C 1726.959 1686.176,1726.407 1685.323,1725.264 1682.750 C 1724.593 1681.237,1723.632 1680.000,1723.130 1680.000 C 1722.628 1680.000,1721.962 1678.987,1721.650 1677.750 C 1721.338 1676.513,1720.384 1674.600,1719.530 1673.500 C 1717.633 1671.057,1711.874 1662.520,1710.494 1660.105 C 1709.940 1659.137,1708.815 1657.630,1707.994 1656.756 C 1707.172 1655.882,1705.150 1652.888,1703.500 1650.103 C 1701.850 1647.317,1700.162 1645.029,1699.750 1645.019 C 1699.338 1645.008,1699.000 1644.311,1699.000 1643.469 C 1699.000 1642.626,1698.366 1641.694,1697.590 1641.396 C 1696.815 1641.099,1695.914 1639.794,1695.589 1638.498 C 1695.263 1637.201,1694.417 1635.546,1693.709 1634.820 C 1693.001 1634.094,1690.901 1631.138,1689.042 1628.250 C 1687.184 1625.362,1685.289 1623.000,1684.832 1623.000 C 1684.374 1623.000,1684.000 1622.462,1684.000 1621.804 C 1684.000 1620.488,1678.948 1612.699,1677.750 1612.167 C 1677.338 1611.983,1677.000 1611.351,1677.000 1610.761 C 1677.000 1610.171,1675.875 1608.214,1674.500 1606.411 C 1673.125 1604.608,1672.000 1602.878,1672.000 1602.567 C 1672.000 1602.255,1671.274 1601.212,1670.387 1600.250 C 1669.500 1599.287,1666.804 1595.350,1664.396 1591.500 C 1659.277 1583.314,1657.862 1581.178,1656.500 1579.585 C 1655.527 1578.447,1655.083 1577.789,1651.045 1571.500 C 1649.985 1569.850,1648.642 1567.956,1648.059 1567.292 C 1647.477 1566.628,1647.000 1565.788,1647.000 1565.426 C 1647.000 1565.064,1645.313 1562.476,1643.250 1559.674 C 1639.316 1554.330,1638.671 1553.337,1635.620 1547.929 C 1634.587 1546.097,1633.124 1543.981,1632.370 1543.227 C 1631.617 1542.474,1631.000 1541.508,1631.000 1541.082 C 1631.000 1540.400,1629.866 1538.854,1626.019 1534.292 C 1625.458 1533.628,1625.000 1532.801,1625.000 1532.456 C 1625.000 1531.570,1618.659 1522.571,1617.750 1522.167 C 1617.338 1521.983,1616.999 1521.308,1616.999 1520.667 C 1616.998 1520.025,1615.873 1518.193,1614.499 1516.594 C 1613.124 1514.996,1612.000 1513.121,1612.000 1512.428 C 1612.000 1511.734,1611.652 1511.017,1611.227 1510.833 C 1610.802 1510.650,1608.999 1508.250,1607.220 1505.500 C 1601.940 1497.337,1601.597 1496.841,1599.250 1493.967 C 1598.013 1492.451,1597.000 1490.907,1597.000 1490.534 C 1597.000 1490.162,1596.438 1489.252,1595.750 1488.512 C 1595.063 1487.773,1593.150 1484.888,1591.500 1482.103 C 1589.850 1479.317,1588.162 1477.029,1587.750 1477.019 C 1587.338 1477.008,1587.000 1476.311,1587.000 1475.469 C 1587.000 1474.626,1586.325 1473.678,1585.500 1473.362 C 1584.675 1473.045,1584.000 1472.244,1584.000 1471.582 C 1584.000 1470.919,1583.190 1469.505,1582.200 1468.439 C 1581.209 1467.372,1580.124 1465.779,1579.787 1464.897 C 1579.451 1464.016,1576.661 1459.581,1573.588 1455.041 C 1570.515 1450.502,1568.000 1446.486,1568.000 1446.116 C 1568.000 1445.747,1567.213 1444.725,1566.250 1443.845 C 1565.287 1442.965,1563.150 1439.949,1561.500 1437.142 C 1559.850 1434.334,1558.162 1432.029,1557.750 1432.019 C 1557.338 1432.008,1557.000 1431.311,1557.000 1430.469 C 1557.000 1429.626,1556.366 1428.694,1555.590 1428.396 C 1554.815 1428.099,1553.928 1426.848,1553.618 1425.616 C 1553.309 1424.384,1551.919 1422.055,1550.529 1420.438 C 1549.140 1418.822,1548.002 1417.144,1548.001 1416.708 C 1548.000 1415.932,1547.009 1414.558,1544.000 1411.165 C 1543.175 1410.234,1541.915 1408.354,1541.201 1406.986 C 1537.827 1400.527,1536.822 1399.000,1535.945 1399.000 C 1535.425 1399.000,1535.000 1398.480,1535.000 1397.844 C 1535.000 1397.209,1533.875 1395.214,1532.500 1393.411 C 1531.125 1391.608,1530.000 1389.691,1530.000 1389.150 C 1530.000 1388.609,1529.438 1387.930,1528.750 1387.641 C 1527.856 1387.266,1527.999 1386.800,1529.255 1386.005 C 1530.221 1385.395,1532.108 1383.906,1533.449 1382.697 C 1534.789 1381.489,1537.805 1378.925,1540.151 1377.000 C 1542.496 1375.075,1546.879 1371.106,1549.889 1368.179 C 1552.900 1365.253,1556.294 1362.214,1557.432 1361.425 C 1560.170 1359.527,1599.000 1320.805,1599.000 1319.972 C 1599.000 1319.616,1602.263 1315.973,1606.250 1311.875 C 1610.237 1307.777,1615.075 1302.467,1617.000 1300.076 C 1618.925 1297.684,1620.950 1295.217,1621.500 1294.595 C 1622.050 1293.972,1624.300 1291.436,1626.500 1288.960 C 1628.700 1286.484,1631.400 1283.161,1632.500 1281.577 C 1633.600 1279.992,1635.175 1277.974,1636.000 1277.093 C 1637.438 1275.557,1645.197 1265.948,1648.785 1261.259 C 1649.728 1260.027,1651.274 1258.061,1652.220 1256.891 C 1653.166 1255.720,1654.196 1253.957,1654.508 1252.974 C 1654.821 1251.990,1655.734 1250.932,1656.538 1250.624 C 1657.342 1250.315,1658.000 1249.374,1658.000 1248.531 C 1658.000 1247.689,1658.461 1247.000,1659.025 1247.000 C 1659.588 1247.000,1660.477 1245.875,1661.000 1244.500 C 1661.523 1243.125,1662.357 1242.000,1662.854 1242.000 C 1663.351 1242.000,1664.317 1240.650,1665.000 1239.000 C 1665.683 1237.350,1666.586 1236.000,1667.005 1236.000 C 1667.424 1236.000,1668.034 1235.213,1668.360 1234.250 C 1668.687 1233.288,1670.988 1229.800,1673.475 1226.500 C 1675.961 1223.200,1678.735 1219.150,1679.637 1217.500 C 1680.540 1215.850,1681.569 1214.275,1681.924 1214.000 C 1682.772 1213.342,1689.356 1203.195,1691.007 1200.000 C 1691.718 1198.625,1692.570 1197.275,1692.901 1197.000 C 1693.232 1196.725,1694.177 1195.150,1695.000 1193.500 C 1695.823 1191.850,1696.723 1190.275,1696.998 1190.000 C 1697.969 1189.033,1700.056 1185.466,1701.534 1182.250 C 1702.355 1180.463,1703.380 1179.000,1703.813 1179.000 C 1704.245 1179.000,1705.168 1177.425,1705.864 1175.500 C 1706.560 1173.575,1707.460 1172.000,1707.864 1172.000 C 1708.268 1172.000,1709.202 1170.313,1709.940 1168.250 C 1710.678 1166.188,1711.556 1164.275,1711.891 1164.000 C 1712.986 1163.101,1715.037 1159.573,1716.686 1155.750 C 1717.575 1153.687,1718.627 1152.000,1719.022 1152.000 C 1719.417 1152.000,1720.307 1149.975,1721.000 1147.500 C 1721.693 1145.025,1722.586 1143.000,1722.984 1143.000 C 1723.382 1143.000,1724.981 1140.075,1726.538 1136.500 C 1728.094 1132.925,1729.783 1130.000,1730.291 1130.000 C 1730.799 1130.000,1730.955 1129.325,1730.638 1128.500 C 1730.322 1127.675,1730.450 1127.000,1730.923 1127.000 C 1731.396 1127.000,1732.066 1125.875,1732.411 1124.500 C 1732.756 1123.125,1733.421 1122.000,1733.889 1122.000 C 1734.357 1122.000,1735.307 1119.975,1736.000 1117.500 C 1736.693 1115.025,1737.651 1113.000,1738.130 1113.000 C 1738.608 1113.000,1739.000 1112.304,1739.000 1111.454 C 1739.000 1110.604,1740.125 1107.795,1741.500 1105.212 C 1742.875 1102.629,1744.000 1099.725,1744.000 1098.758 C 1744.000 1097.791,1744.392 1097.000,1744.870 1097.000 C 1745.349 1097.000,1746.335 1094.862,1747.063 1092.250 C 1747.790 1089.638,1748.956 1086.923,1749.653 1086.218 C 1750.351 1085.513,1751.214 1083.375,1751.572 1081.468 C 1751.930 1079.561,1752.623 1078.000,1753.111 1078.000 C 1753.600 1078.000,1754.000 1077.206,1754.000 1076.235 C 1754.000 1075.265,1754.868 1072.851,1755.929 1070.871 C 1756.990 1068.891,1758.165 1065.635,1758.541 1063.636 C 1758.916 1061.636,1759.566 1060.000,1759.986 1060.000 C 1760.406 1060.000,1761.027 1058.614,1761.366 1056.920 C 1761.705 1055.226,1762.616 1052.414,1763.391 1050.670 C 1764.166 1048.927,1765.394 1045.362,1766.119 1042.750 C 1766.843 1040.138,1767.737 1038.000,1768.105 1038.000 C 1768.472 1038.000,1769.091 1035.863,1769.480 1033.250 C 1769.869 1030.638,1770.586 1028.015,1771.073 1027.422 C 1772.294 1025.937,1773.956 1013.821,1773.980 1006.236 C 1773.991 1002.791,1774.563 999.020,1775.250 997.856 C 1776.250 996.162,1776.250 995.648,1775.250 995.286 C 1774.413 994.983,1773.989 992.467,1773.967 987.667 C 1773.925 978.394,1772.432 966.885,1771.171 966.106 C 1770.628 965.770,1769.867 963.809,1769.480 961.748 C 1769.094 959.686,1768.413 958.000,1767.968 958.000 C 1767.523 958.000,1766.850 956.538,1766.472 954.750 C 1765.483 950.076,1757.368 936.667,1751.534 930.069 C 1748.708 926.872,1740.999 919.227,1736.578 915.235 C 1733.861 912.782,1725.016 907.218,1721.750 905.908 C 1720.237 905.301,1719.000 904.405,1719.000 903.917 C 1719.000 903.428,1716.975 902.519,1714.500 901.896 C 1712.025 901.272,1710.000 900.394,1710.000 899.943 C 1710.000 899.492,1707.862 898.808,1705.250 898.422 C 1702.638 898.037,1700.234 897.311,1699.908 896.808 C 1699.222 895.748,1688.463 894.050,1682.250 894.020 C 1679.912 894.009,1678.000 893.550,1678.000 893.000 C 1678.000 891.756,1666.752 891.666,1665.450 892.900 C 1664.928 893.395,1661.125 894.047,1657.000 894.350 C 1648.064 895.005,1643.000 895.968,1643.000 897.011 C 1643.000 897.430,1640.975 898.077,1638.500 898.448 C 1636.025 898.819,1634.000 899.489,1634.000 899.936 C 1634.000 900.384,1632.675 901.015,1631.056 901.339 C 1627.096 902.131,1610.099 911.868,1608.664 914.167 C 1608.034 915.175,1607.043 916.000,1606.462 916.000 C 1605.253 916.000,1590.000 930.901,1590.000 932.081 C 1590.000 932.508,1589.438 933.452,1588.750 934.179 C 1586.422 936.639,1582.000 943.600,1582.000 944.804 C 1582.000 945.462,1581.585 946.000,1581.078 946.000 C 1580.570 946.000,1579.602 947.688,1578.926 949.750 C 1578.250 951.813,1577.134 954.400,1576.447 955.500 C 1575.759 956.600,1574.871 959.075,1574.473 961.000 C 1574.074 962.925,1573.396 964.726,1572.965 965.003 C 1572.533 965.280,1571.588 968.430,1570.864 972.003 C 1570.139 975.576,1568.974 979.095,1568.273 979.821 C 1567.573 980.548,1567.000 982.011,1567.000 983.071 C 1567.000 984.132,1566.606 985.000,1566.125 985.000 C 1565.644 985.000,1564.980 986.350,1564.650 988.000 C 1564.320 989.650,1563.190 992.912,1562.138 995.250 C 1561.087 997.587,1559.915 1000.962,1559.534 1002.750 C 1559.153 1004.538,1558.520 1006.000,1558.128 1006.000 C 1557.736 1006.000,1556.873 1008.025,1556.211 1010.500 C 1555.549 1012.975,1554.576 1015.000,1554.049 1015.000 C 1553.522 1015.000,1552.795 1016.575,1552.434 1018.500 C 1552.073 1020.425,1551.377 1022.000,1550.889 1022.000 C 1550.400 1022.000,1549.998 1022.563,1549.996 1023.250 C 1549.994 1023.938,1548.646 1027.200,1547.000 1030.500 C 1545.354 1033.800,1544.006 1037.025,1544.004 1037.667 C 1544.002 1038.308,1543.614 1038.983,1543.142 1039.167 C 1542.671 1039.350,1540.105 1044.000,1537.441 1049.500 C 1534.778 1055.000,1532.351 1059.725,1532.049 1060.000 C 1531.747 1060.275,1530.150 1063.200,1528.500 1066.500 C 1526.850 1069.800,1524.938 1072.860,1524.250 1073.300 C 1523.563 1073.740,1523.000 1074.877,1523.000 1075.827 C 1523.000 1076.778,1522.100 1078.326,1521.000 1079.268 C 1519.900 1080.210,1519.000 1081.568,1519.000 1082.287 C 1519.000 1083.005,1518.325 1084.472,1517.500 1085.547 C 1514.512 1089.437,1511.000 1095.110,1511.000 1096.044 C 1511.000 1096.570,1510.605 1097.000,1510.121 1097.000 C 1509.638 1097.000,1508.651 1098.463,1507.928 1100.250 C 1507.205 1102.037,1506.278 1103.735,1505.867 1104.022 C 1504.727 1104.819,1500.000 1111.979,1500.000 1112.909 C 1500.000 1113.360,1498.642 1115.252,1496.982 1117.114 C 1495.322 1118.977,1492.373 1122.863,1490.429 1125.750 C 1488.484 1128.638,1486.467 1131.000,1485.947 1131.000 C 1485.426 1131.000,1485.000 1131.534,1485.000 1132.186 C 1485.000 1132.838,1483.200 1135.506,1481.000 1138.115 C 1478.800 1140.724,1477.000 1143.069,1477.000 1143.327 C 1477.000 1143.808,1475.011 1146.229,1466.671 1155.900 C 1464.015 1158.980,1460.415 1163.231,1458.671 1165.347 C 1456.927 1167.463,1445.751 1179.094,1433.837 1191.193 C 1412.829 1212.527,1412.136 1213.121,1410.937 1210.846 C 1410.257 1209.556,1409.429 1208.275,1409.097 1208.000 C 1408.766 1207.725,1407.169 1205.475,1405.549 1203.000 C 1403.930 1200.525,1402.125 1198.050,1401.540 1197.500 C 1400.955 1196.950,1399.901 1195.375,1399.198 1194.000 C 1397.275 1190.236,1395.641 1187.590,1394.236 1185.963 C 1392.131 1183.527,1388.000 1176.968,1388.000 1176.063 C 1388.000 1175.596,1387.325 1174.955,1386.500 1174.638 C 1385.675 1174.322,1385.000 1173.406,1385.000 1172.603 C 1385.000 1171.800,1384.438 1170.542,1383.750 1169.808 C 1381.839 1167.768,1376.000 1159.259,1376.000 1158.515 C 1376.000 1158.153,1375.438 1157.230,1374.750 1156.463 C 1371.967 1153.360,1371.000 1152.051,1371.000 1151.387 C 1371.000 1151.003,1369.875 1149.214,1368.500 1147.411 C 1367.125 1145.608,1366.000 1143.639,1366.000 1143.035 C 1366.000 1142.431,1365.325 1141.678,1364.500 1141.362 C 1363.675 1141.045,1363.000 1140.313,1363.000 1139.734 C 1363.000 1139.155,1361.278 1136.391,1359.174 1133.591 C 1357.069 1130.791,1354.102 1126.362,1352.579 1123.750 C 1351.056 1121.138,1349.403 1119.000,1348.905 1119.000 C 1348.407 1119.000,1348.000 1118.462,1348.000 1117.804 C 1348.000 1116.488,1342.948 1108.699,1341.750 1108.167 C 1341.338 1107.983,1341.000 1107.417,1341.000 1106.908 C 1341.000 1106.399,1339.763 1104.240,1338.250 1102.109 C 1334.689 1097.094,1334.195 1096.353,1326.520 1084.500 C 1322.958 1079.000,1319.697 1074.050,1319.272 1073.500 C 1318.847 1072.950,1317.150 1070.475,1315.500 1068.000 C 1313.850 1065.525,1312.050 1062.975,1311.500 1062.334 C 1310.950 1061.692,1309.150 1058.888,1307.500 1056.103 C 1305.850 1053.317,1304.162 1051.029,1303.750 1051.019 C 1303.338 1051.008,1303.000 1050.311,1303.000 1049.469 C 1303.000 1048.626,1302.402 1047.708,1301.670 1047.427 C 1300.939 1047.146,1299.730 1045.360,1298.984 1043.458 C 1298.237 1041.556,1297.373 1039.992,1297.063 1039.981 C 1296.754 1039.971,1295.150 1037.690,1293.500 1034.914 C 1291.850 1032.137,1289.037 1027.898,1287.250 1025.493 C 1285.463 1023.088,1284.000 1020.629,1284.000 1020.029 C 1284.000 1019.428,1283.325 1018.678,1282.500 1018.362 C 1281.675 1018.045,1281.000 1017.345,1281.000 1016.806 C 1281.000 1016.268,1279.537 1013.734,1277.750 1011.177 C 1274.595 1006.663,1273.884 1005.721,1271.250 1002.577 C 1270.563 1001.756,1270.000 1000.770,1270.000 1000.385 C 1270.000 999.404,1252.692 973.574,1251.762 973.167 C 1251.343 972.983,1251.000 972.382,1251.000 971.830 C 1251.000 970.675,1244.875 961.667,1243.750 961.167 C 1243.338 960.983,1243.000 960.182,1243.000 959.385 C 1243.000 958.589,1242.325 957.678,1241.500 957.362 C 1240.675 957.045,1240.000 956.239,1240.000 955.571 C 1240.000 954.903,1238.663 952.589,1237.028 950.428 C 1235.393 948.268,1234.043 946.130,1234.028 945.679 C 1234.013 945.227,1233.438 944.269,1232.750 943.551 C 1231.410 942.151,1230.768 941.224,1225.794 933.500 C 1224.023 930.750,1222.331 928.275,1222.034 928.000 C 1221.737 927.725,1220.147 925.475,1218.500 923.000 C 1216.853 920.525,1215.258 918.275,1214.955 918.000 C 1214.652 917.725,1213.188 915.394,1211.701 912.821 C 1210.215 910.247,1208.436 907.547,1207.749 906.821 C 1207.062 906.094,1205.825 904.150,1205.000 902.500 C 1203.249 898.998,1202.153 897.476,1199.750 895.207 C 1198.787 894.299,1198.000 893.003,1198.000 892.327 C 1198.000 891.652,1197.437 890.740,1196.748 890.300 C 1196.060 889.860,1194.823 888.150,1194.000 886.500 C 1193.177 884.850,1192.262 883.275,1191.967 883.000 C 1191.672 882.725,1189.683 879.800,1187.547 876.500 C 1185.411 873.200,1181.489 867.229,1178.832 863.231 C 1176.174 859.233,1174.000 855.568,1174.000 855.088 C 1174.000 854.607,1173.325 853.955,1172.500 853.638 C 1171.675 853.322,1171.000 852.374,1171.000 851.531 C 1171.000 850.689,1170.550 850.000,1170.000 850.000 C 1169.450 850.000,1169.000 849.329,1169.000 848.508 C 1169.000 847.688,1168.100 846.455,1167.000 845.768 C 1165.900 845.081,1165.000 844.089,1165.000 843.563 C 1165.000 842.730,1160.384 835.371,1159.001 834.000 C 1158.724 833.725,1157.859 832.263,1157.079 830.750 C 1156.300 829.237,1155.288 828.000,1154.831 828.000 C 1154.374 828.000,1154.000 827.360,1154.000 826.577 C 1154.000 825.794,1152.875 823.816,1151.500 822.182 C 1150.125 820.548,1149.000 818.921,1149.000 818.565 C 1149.000 817.857,1145.200 812.312,1143.316 810.271 C 1142.664 809.565,1141.846 808.091,1141.498 806.994 C 1141.150 805.897,1140.500 805.000,1140.054 805.000 C 1139.608 805.000,1138.683 803.650,1138.000 802.000 C 1137.317 800.350,1136.434 799.000,1136.039 799.000 C 1135.644 799.000,1134.801 797.858,1134.165 796.462 C 1133.529 795.067,1132.548 793.379,1131.986 792.712 C 1128.059 788.057,1126.989 786.541,1126.462 784.881 C 1126.134 783.847,1125.446 783.000,1124.933 783.000 C 1124.420 783.000,1124.000 782.480,1124.000 781.844 C 1124.000 781.209,1122.875 779.214,1121.500 777.411 C 1120.125 775.608,1119.000 773.639,1119.000 773.035 C 1119.000 772.431,1118.325 771.678,1117.500 771.362 C 1116.675 771.045,1116.000 770.229,1116.000 769.549 C 1116.000 768.868,1114.876 767.004,1113.501 765.406 C 1112.127 763.807,1111.002 761.986,1111.001 761.357 C 1111.001 760.728,1110.325 759.955,1109.500 759.638 C 1108.675 759.322,1108.000 758.532,1108.000 757.884 C 1108.000 755.507,1095.273 741.552,1090.000 738.148 C 1088.625 737.261,1086.912 735.739,1086.193 734.767 C 1085.475 733.795,1084.237 733.000,1083.443 733.000 C 1082.649 733.000,1082.000 732.649,1082.000 732.219 C 1082.000 731.790,1080.763 730.888,1079.250 730.215 C 1077.737 729.542,1073.590 727.418,1070.033 725.495 C 1066.477 723.573,1062.314 722.000,1060.783 722.000 C 1059.253 722.000,1058.000 721.621,1058.000 721.158 C 1058.000 720.107,1051.139 718.000,1047.717 718.000 C 1046.314 718.000,1045.008 717.524,1044.814 716.942 C 1044.326 715.478,1003.674 715.478,1003.186 716.942 C 1002.992 717.524,1001.633 718.003,1000.167 718.006 C 996.370 718.014,990.000 719.919,990.000 721.047 C 990.000 721.571,989.019 722.000,987.821 722.000 C 985.094 722.000,979.000 724.156,979.000 725.121 C 979.000 725.517,977.620 726.144,975.932 726.515 C 974.245 726.885,972.638 727.781,972.360 728.504 C 972.082 729.228,970.724 730.103,969.342 730.450 C 967.960 730.797,966.305 731.500,965.664 732.012 C 954.282 741.113,948.566 746.337,944.216 751.612 C 941.897 754.424,940.000 757.042,940.000 757.429 C 940.000 758.160,935.437 764.509,933.250 766.821 C 932.563 767.548,932.000 768.609,932.000 769.178 C 932.000 769.748,930.200 772.474,928.000 775.237 C 925.800 778.001,924.000 780.877,924.000 781.631 C 924.000 782.384,923.605 783.000,923.121 783.000 C 922.638 783.000,921.683 784.350,921.000 786.000 C 920.317 787.650,919.434 789.000,919.039 789.000 C 918.644 789.000,917.801 790.142,917.165 791.538 C 916.529 792.933,915.548 794.621,914.986 795.288 C 911.059 799.943,909.989 801.459,909.462 803.119 C 909.134 804.153,908.500 805.000,908.054 805.000 C 907.608 805.000,906.683 806.350,906.000 808.000 C 905.317 809.650,904.417 811.000,904.000 811.000 C 903.583 811.000,902.683 812.350,902.000 814.000 C 901.317 815.650,900.362 817.000,899.879 817.000 C 899.395 817.000,899.000 817.498,899.000 818.106 C 899.000 818.714,897.875 820.548,896.500 822.182 C 895.125 823.816,894.000 825.794,894.000 826.577 C 894.000 827.360,893.580 828.000,893.067 828.000 C 892.554 828.000,891.850 828.897,891.502 829.994 C 891.154 831.091,890.336 832.553,889.684 833.244 C 887.625 835.428,883.000 842.568,883.000 843.563 C 883.000 844.089,882.100 845.081,881.000 845.768 C 879.900 846.455,879.000 847.688,879.000 848.508 C 879.000 849.329,878.550 850.000,878.000 850.000 C 877.450 850.000,876.999 850.563,876.999 851.250 C 876.998 851.938,875.873 853.807,874.499 855.406 C 873.124 857.004,872.000 858.916,872.000 859.656 C 872.000 860.395,871.539 861.000,870.975 861.000 C 870.412 861.000,869.523 862.125,869.000 863.500 C 868.477 864.875,867.588 866.000,867.025 866.000 C 866.461 866.000,866.000 866.434,866.000 866.965 C 866.000 868.364,859.129 879.269,855.723 883.278 C 854.745 884.428,853.692 886.378,853.383 887.612 C 853.073 888.846,852.185 890.099,851.410 890.396 C 850.634 890.694,850.000 891.431,850.000 892.035 C 850.000 892.639,848.875 894.608,847.500 896.411 C 846.125 898.214,845.000 900.161,845.000 900.737 C 845.000 901.314,844.325 902.045,843.500 902.362 C 842.675 902.678,842.000 903.626,842.000 904.469 C 842.000 905.311,841.575 906.000,841.055 906.000 C 840.535 906.000,839.522 907.068,838.805 908.374 C 834.996 915.305,833.616 917.496,831.894 919.344 C 830.852 920.462,830.000 921.930,830.000 922.605 C 830.000 923.281,829.663 923.983,829.250 924.167 C 828.230 924.620,821.732 934.000,822.438 934.000 C 822.747 934.000,822.212 934.826,821.250 935.835 C 820.288 936.844,818.951 938.532,818.279 939.585 C 817.608 940.638,815.468 943.750,813.523 946.500 C 811.578 949.250,809.437 952.625,808.765 954.000 C 808.092 955.375,806.970 956.860,806.271 957.300 C 805.572 957.740,805.000 958.507,805.000 959.005 C 805.000 959.763,798.945 969.107,796.255 972.500 C 795.819 973.050,794.020 975.750,792.258 978.500 C 790.495 981.250,788.694 983.950,788.255 984.500 C 785.775 987.609,778.000 1000.094,778.000 1000.968 C 778.000 1001.535,777.535 1002.000,776.968 1002.000 C 776.400 1002.000,775.613 1002.787,775.218 1003.750 C 774.543 1005.396,767.093 1016.916,766.003 1018.000 C 764.463 1019.531,759.000 1027.980,759.000 1028.830 C 759.000 1029.382,758.650 1029.983,758.223 1030.167 C 757.114 1030.643,748.000 1044.729,748.000 1045.968 C 748.000 1046.535,747.539 1047.000,746.975 1047.000 C 746.412 1047.000,745.523 1048.125,745.000 1049.500 C 744.477 1050.875,743.588 1052.000,743.025 1052.000 C 742.461 1052.000,742.000 1052.480,742.000 1053.067 C 742.000 1053.653,740.875 1055.608,739.500 1057.411 C 738.125 1059.214,737.000 1061.171,737.000 1061.761 C 737.000 1062.351,736.663 1062.983,736.250 1063.167 C 735.837 1063.350,734.150 1065.525,732.500 1068.000 C 730.850 1070.475,729.147 1072.950,728.715 1073.500 C 727.023 1075.656,718.000 1090.031,718.000 1090.570 C 718.000 1090.885,717.438 1091.770,716.750 1092.537 C 714.540 1095.001,713.526 1096.402,710.258 1101.500 C 708.495 1104.250,706.652 1106.978,706.162 1107.563 C 705.672 1108.148,704.689 1109.713,703.977 1111.042 C 703.266 1112.371,702.080 1114.063,701.342 1114.801 C 700.604 1115.539,700.000 1116.786,700.000 1117.571 C 700.000 1118.357,699.562 1119.000,699.026 1119.000 C 698.490 1119.000,697.351 1120.237,696.495 1121.750 C 695.639 1123.263,694.067 1125.850,693.000 1127.500 C 691.933 1129.150,690.311 1131.850,689.395 1133.500 C 688.479 1135.150,687.115 1136.860,686.365 1137.300 C 685.614 1137.740,685.000 1138.752,685.000 1139.550 C 685.000 1140.347,684.605 1141.000,684.121 1141.000 C 683.638 1141.000,682.683 1142.350,682.000 1144.000 C 681.317 1145.650,680.417 1147.000,680.000 1147.000 C 679.583 1147.000,678.683 1148.350,678.000 1150.000 C 677.317 1151.650,676.392 1153.000,675.946 1153.000 C 675.500 1153.000,674.850 1153.897,674.502 1154.994 C 674.154 1156.091,673.326 1157.553,672.662 1158.244 C 670.950 1160.027,663.640 1171.113,662.782 1173.229 C 662.387 1174.203,661.600 1175.000,661.032 1175.000 C 660.465 1175.000,660.000 1175.460,660.000 1176.021 C 660.000 1177.413,654.823 1185.308,653.260 1186.300 C 652.567 1186.740,652.000 1187.507,652.000 1188.005 C 652.000 1188.818,648.273 1194.948,646.226 1197.500 C 645.785 1198.050,643.466 1201.537,641.073 1205.250 C 638.680 1208.963,636.264 1212.000,635.706 1212.000 C 635.147 1212.000,625.197 1202.328,613.595 1190.506 C 593.608 1170.142,590.786 1167.115,582.818 1157.500 C 580.995 1155.300,579.210 1153.275,578.851 1153.000 C 578.492 1152.725,576.123 1149.800,573.587 1146.500 C 571.050 1143.200,567.743 1139.000,566.237 1137.166 C 564.732 1135.332,563.177 1132.970,562.782 1131.916 C 562.387 1130.862,561.676 1130.000,561.201 1130.000 C 560.726 1130.000,558.818 1127.638,556.962 1124.750 C 555.106 1121.862,553.087 1119.050,552.474 1118.500 C 551.862 1117.950,549.394 1114.463,546.990 1110.750 C 544.587 1107.038,542.346 1104.000,542.011 1104.000 C 541.676 1104.000,540.832 1102.425,540.136 1100.500 C 539.440 1098.575,538.450 1097.000,537.935 1097.000 C 537.421 1097.000,537.000 1096.462,537.000 1095.804 C 537.000 1094.600,532.578 1087.639,530.250 1085.179 C 529.563 1084.452,529.000 1083.210,529.000 1082.419 C 529.000 1081.628,528.100 1080.210,527.000 1079.268 C 525.900 1078.326,525.000 1076.778,525.000 1075.827 C 525.000 1074.877,524.411 1073.740,523.691 1073.300 C 522.971 1072.860,521.792 1071.038,521.070 1069.250 C 520.348 1067.463,519.398 1066.000,518.958 1066.000 C 518.519 1066.000,517.862 1064.650,517.500 1063.000 C 517.138 1061.350,516.462 1060.000,515.998 1060.000 C 515.534 1060.000,514.605 1058.313,513.933 1056.250 C 513.260 1054.188,512.436 1052.275,512.100 1052.000 C 511.765 1051.725,510.142 1048.689,508.495 1045.252 C 506.848 1041.816,505.221 1039.004,504.880 1039.002 C 504.539 1039.001,503.693 1036.975,503.000 1034.500 C 502.307 1032.025,501.383 1030.000,500.948 1030.000 C 500.512 1030.000,499.605 1028.312,498.933 1026.250 C 498.260 1024.188,497.416 1022.275,497.056 1022.000 C 496.697 1021.725,495.844 1019.587,495.161 1017.250 C 494.478 1014.912,493.508 1013.000,493.005 1013.000 C 492.502 1013.000,491.795 1011.425,491.434 1009.500 C 491.073 1007.575,490.413 1006.000,489.968 1006.000 C 489.523 1006.000,488.847 1004.538,488.466 1002.750 C 488.085 1000.963,486.957 997.684,485.960 995.465 C 484.962 993.246,483.819 990.096,483.419 988.465 C 483.019 986.834,482.421 985.275,482.090 985.000 C 481.759 984.725,480.173 980.450,478.566 975.500 C 476.960 970.550,475.348 966.275,474.984 966.000 C 474.620 965.725,473.713 962.715,472.968 959.310 C 472.224 955.906,471.347 953.285,471.021 953.487 C 470.695 953.688,469.861 950.862,469.167 947.207 C 468.474 943.551,467.532 940.322,467.074 940.030 C 466.617 939.739,465.920 937.025,465.526 934.000 C 465.132 930.975,464.245 927.600,463.555 926.500 C 462.865 925.400,461.974 921.580,461.574 918.012 C 461.174 914.443,460.471 911.291,460.011 911.007 C 459.551 910.722,458.680 906.931,458.075 902.582 C 457.470 898.233,456.585 894.185,456.109 893.587 C 455.633 892.989,454.917 889.350,454.520 885.500 C 454.122 881.650,453.533 878.068,453.210 877.541 C 452.887 877.013,452.746 874.588,452.896 872.152 C 453.050 869.645,452.677 867.418,452.037 867.023 C 451.378 866.615,450.654 861.879,450.302 855.662 C 449.970 849.798,449.368 845.000,448.964 845.000 C 448.561 845.000,448.437 841.962,448.691 838.250 C 448.989 833.870,448.820 831.971,448.210 832.842 C 446.750 834.923,445.695 788.897,446.539 760.006 C 446.997 744.366,447.620 735.334,448.184 736.164 C 448.768 737.022,449.020 735.353,448.889 731.500 C 448.776 728.200,448.943 724.825,449.258 724.000 C 449.574 723.175,450.088 718.031,450.401 712.568 C 450.735 706.743,451.447 702.342,452.123 701.924 C 452.862 701.467,453.098 699.370,452.781 696.076 C 452.510 693.251,452.647 690.718,453.086 690.447 C 453.524 690.176,454.193 686.814,454.571 682.977 C 454.949 679.140,455.590 676.000,455.996 676.000 C 456.402 676.000,457.242 672.063,457.863 667.251 C 458.484 662.440,459.420 658.360,459.942 658.186 C 460.464 658.012,461.213 654.636,461.606 650.685 C 461.999 646.733,462.549 644.175,462.829 645.000 C 463.384 646.636,465.832 636.195,465.936 631.750 C 465.971 630.237,466.357 629.000,466.793 629.000 C 467.829 629.000,470.000 620.826,470.000 616.927 C 470.000 615.252,470.382 614.118,470.849 614.406 C 471.315 614.695,472.270 612.359,472.969 609.215 C 473.669 606.072,474.526 603.275,474.875 603.000 C 475.223 602.725,476.376 599.800,477.437 596.500 C 478.498 593.200,480.147 588.700,481.102 586.500 C 482.057 584.300,483.154 581.375,483.538 580.000 C 483.923 578.625,485.096 575.587,486.144 573.250 C 487.192 570.912,488.320 567.650,488.650 566.000 C 488.980 564.350,489.594 563.000,490.014 563.000 C 490.434 563.000,491.073 561.425,491.434 559.500 C 491.795 557.575,492.502 556.000,493.005 556.000 C 493.508 556.000,494.478 554.087,495.161 551.750 C 495.844 549.413,496.697 547.275,497.056 547.000 C 497.416 546.725,498.282 544.700,498.982 542.500 C 499.681 540.300,500.836 537.825,501.549 537.000 C 502.261 536.175,503.153 534.263,503.530 532.750 C 503.908 531.238,504.535 530.000,504.925 530.000 C 505.314 530.000,506.906 527.075,508.462 523.500 C 510.019 519.925,511.641 517.000,512.067 517.000 C 512.493 517.000,513.139 515.645,513.502 513.990 C 513.866 512.334,514.689 510.406,515.332 509.705 C 515.974 509.004,517.814 505.971,519.421 502.965 C 521.027 499.959,522.602 497.275,522.921 496.999 C 523.508 496.492,526.049 491.970,528.822 486.500 C 529.659 484.850,530.643 483.275,531.008 483.000 C 531.374 482.725,532.963 480.250,534.539 477.500 C 536.115 474.750,537.652 472.275,537.955 472.000 C 538.999 471.053,545.000 460.866,545.000 460.041 C 545.000 459.586,545.675 458.955,546.500 458.638 C 547.325 458.322,548.000 457.374,548.000 456.531 C 548.000 455.689,548.461 455.000,549.025 455.000 C 549.588 455.000,550.477 453.875,551.000 452.500 C 551.523 451.125,552.381 450.000,552.908 450.000 C 553.434 450.000,554.134 449.153,554.462 448.119 C 554.791 447.084,555.834 445.280,556.780 444.109 C 557.726 442.939,559.400 440.824,560.500 439.410 C 561.600 437.996,562.991 436.304,563.592 435.649 C 564.193 434.994,565.277 433.343,566.001 431.979 C 566.725 430.616,568.146 428.912,569.159 428.193 C 570.171 427.475,571.000 426.275,571.000 425.527 C 571.000 424.779,571.399 424.017,571.886 423.833 C 572.374 423.650,575.767 419.900,579.426 415.500 C 583.086 411.100,588.200 405.041,590.790 402.037 C 597.572 394.170,638.677 353.000,639.750 353.000 C 640.246 353.000,641.965 351.425,643.571 349.500 C 645.176 347.575,646.941 345.988,647.494 345.973 C 648.047 345.959,650.353 344.271,652.617 342.223 C 661.051 334.595,664.217 332.000,665.088 332.000 C 665.580 332.000,666.545 331.100,667.232 330.000 C 667.919 328.900,668.829 328.000,669.255 328.000 C 669.680 328.000,672.609 325.958,675.764 323.463 C 685.698 315.605,686.483 315.027,687.239 315.013 C 687.952 315.000,690.817 312.835,693.540 310.250 C 694.265 309.563,695.227 308.999,695.679 308.999 C 696.130 308.998,697.807 307.873,699.406 306.499 C 701.004 305.124,702.879 304.000,703.572 304.000 C 704.266 304.000,704.983 303.652,705.167 303.227 C 705.350 302.802,707.750 300.999,710.500 299.220 C 718.139 294.279,719.156 293.583,720.373 292.458 C 720.993 291.885,722.962 290.817,724.750 290.086 C 726.538 289.355,728.000 288.411,728.000 287.987 C 728.000 287.563,729.094 286.942,730.430 286.607 C 731.767 286.271,733.470 285.435,734.216 284.748 C 735.822 283.269,739.267 281.297,747.750 276.999 C 751.188 275.258,754.000 273.421,754.000 272.917 C 754.000 272.413,754.575 272.000,755.278 272.000 C 755.981 272.000,761.943 269.350,768.528 266.110 C 779.197 260.861,785.041 258.124,795.651 253.402 C 797.384 252.631,799.096 252.000,799.456 252.000 C 800.298 252.000,808.751 248.327,812.000 246.550 C 813.375 245.798,814.950 245.136,815.500 245.079 C 817.297 244.894,820.489 243.745,821.000 243.099 C 821.275 242.751,823.739 241.886,826.476 241.177 C 829.213 240.467,831.689 239.504,831.978 239.035 C 832.268 238.567,834.304 237.867,836.502 237.480 C 838.701 237.092,841.400 236.217,842.500 235.535 C 843.600 234.852,846.638 233.975,849.250 233.585 C 851.862 233.196,854.000 232.517,854.000 232.075 C 854.000 231.634,856.813 230.715,860.250 230.032 C 863.688 229.349,867.850 228.219,869.500 227.519 C 871.150 226.820,874.503 225.947,876.950 225.580 C 879.398 225.213,881.938 224.466,882.595 223.922 C 883.251 223.377,886.086 222.659,888.894 222.326 C 891.702 221.994,894.000 221.326,894.000 220.842 C 894.000 220.358,895.131 220.246,896.513 220.593 C 897.895 220.940,899.612 220.737,900.329 220.142 C 901.045 219.547,904.302 218.754,907.566 218.379 C 910.830 218.004,913.725 217.411,914.000 217.062 C 914.661 216.221,928.094 214.000,932.519 214.000 C 934.433 214.000,936.000 213.616,936.000 213.148 C 936.000 212.679,940.388 211.988,945.750 211.613 C 951.112 211.238,955.654 210.484,955.843 209.938 C 956.042 209.360,957.656 209.220,959.702 209.604 C 962.189 210.071,963.469 209.859,964.073 208.882 C 965.347 206.821,1082.653 206.821,1083.927 208.882 C 1084.531 209.859,1085.811 210.071,1088.298 209.604 C 1090.344 209.220,1091.958 209.360,1092.157 209.938 C 1092.346 210.484,1096.888 211.238,1102.250 211.613 C 1107.612 211.988,1112.000 212.618,1112.000 213.013 C 1112.000 213.408,1115.037 214.027,1118.750 214.389 C 1130.270 215.513,1134.000 216.177,1134.000 217.105 C 1134.000 217.597,1135.814 218.000,1138.032 218.000 C 1140.250 218.000,1143.732 218.697,1145.771 219.549 C 1147.809 220.400,1150.494 220.842,1151.738 220.530 C 1152.982 220.217,1154.000 220.362,1154.000 220.852 C 1154.000 221.341,1156.669 222.044,1159.931 222.413 C 1163.192 222.782,1166.005 223.489,1166.181 223.985 C 1166.356 224.482,1169.391 225.350,1172.924 225.916 C 1176.457 226.482,1179.607 227.310,1179.924 227.756 C 1180.241 228.202,1183.425 229.151,1187.000 229.865 C 1190.575 230.580,1193.646 231.566,1193.825 232.058 C 1194.004 232.549,1196.367 233.245,1199.075 233.604 C 1201.784 233.964,1204.000 234.617,1204.000 235.057 C 1204.000 235.497,1206.588 236.430,1209.750 237.131 C 1212.912 237.832,1216.068 238.962,1216.762 239.643 C 1217.456 240.324,1220.044 241.184,1222.512 241.554 C 1224.980 241.924,1227.000 242.590,1227.000 243.034 C 1227.000 243.478,1228.463 244.154,1230.250 244.536 C 1232.037 244.918,1234.625 245.798,1236.000 246.491 C 1241.747 249.389,1247.675 251.904,1250.250 252.539 C 1251.763 252.912,1253.000 253.618,1253.000 254.108 C 1253.000 254.599,1253.744 255.000,1254.653 255.000 C 1255.562 255.000,1259.050 256.282,1262.403 257.849 C 1265.756 259.415,1270.412 261.527,1272.750 262.541 C 1275.088 263.555,1277.000 264.690,1277.000 265.062 C 1277.000 265.435,1279.025 266.307,1281.500 267.000 C 1283.975 267.693,1286.000 268.607,1286.000 269.032 C 1286.000 269.839,1291.948 272.391,1293.250 272.143 C 1293.662 272.064,1294.000 272.395,1294.000 272.879 C 1294.000 273.362,1295.463 274.349,1297.250 275.072 C 1299.037 275.795,1300.725 276.680,1301.000 277.039 C 1301.471 277.653,1304.237 279.233,1310.000 282.181 C 1311.375 282.884,1312.725 283.730,1313.000 284.060 C 1313.275 284.390,1314.963 285.297,1316.750 286.074 C 1318.537 286.852,1320.000 287.774,1320.000 288.123 C 1320.000 288.472,1321.463 289.355,1323.250 290.086 C 1325.037 290.817,1327.047 291.885,1327.715 292.458 C 1331.025 295.296,1331.954 296.000,1332.391 296.000 C 1333.531 296.000,1343.000 302.381,1343.000 303.149 C 1343.000 303.617,1343.480 304.000,1344.067 304.000 C 1344.653 304.000,1346.608 305.125,1348.411 306.500 C 1350.214 307.875,1352.209 309.000,1352.844 309.000 C 1353.480 309.000,1354.000 309.450,1354.000 310.000 C 1354.000 310.550,1354.671 311.000,1355.492 311.000 C 1356.312 311.000,1357.545 311.900,1358.232 313.000 C 1358.919 314.100,1359.935 315.006,1360.491 315.013 C 1361.517 315.027,1362.119 315.460,1372.236 323.463 C 1375.391 325.958,1378.203 328.000,1378.486 328.000 C 1378.769 328.000,1379.847 328.788,1380.881 329.750 C 1381.916 330.713,1383.649 332.175,1384.732 333.000 C 1388.653 335.987,1396.295 342.540,1397.852 344.250 C 1398.728 345.212,1399.909 346.000,1400.478 346.000 C 1401.046 346.000,1402.824 347.575,1404.429 349.500 C 1406.035 351.425,1407.914 353.000,1408.606 353.000 C 1409.299 353.000,1410.144 353.877,1410.484 354.949 C 1410.824 356.021,1411.867 357.146,1412.801 357.449 C 1414.666 358.054,1449.502 393.128,1457.500 402.453 C 1460.250 405.660,1463.963 409.839,1465.750 411.742 C 1467.537 413.644,1469.006 415.492,1469.012 415.850 C 1469.019 416.207,1470.819 418.432,1473.012 420.793 C 1475.206 423.155,1477.000 425.405,1477.000 425.794 C 1477.000 426.183,1478.800 428.470,1481.000 430.877 C 1483.200 433.284,1485.000 435.580,1485.000 435.980 C 1485.000 436.381,1486.013 437.834,1487.250 439.211 C 1488.487 440.588,1490.175 442.741,1491.000 443.996 C 1491.825 445.251,1493.513 447.518,1494.750 449.033 C 1495.987 450.549,1497.000 452.080,1497.000 452.437 C 1497.000 453.108,1498.250 454.766,1501.250 458.072 C 1502.213 459.132,1503.000 460.305,1503.000 460.677 C 1503.000 461.312,1511.863 474.916,1512.983 476.000 C 1513.267 476.275,1514.297 478.075,1515.271 480.000 C 1516.245 481.925,1518.135 485.300,1519.470 487.500 C 1520.805 489.700,1522.341 492.465,1522.884 493.645 C 1523.427 494.825,1524.237 495.950,1524.685 496.145 C 1525.133 496.340,1526.850 499.200,1528.500 502.500 C 1530.150 505.800,1531.742 508.725,1532.038 509.000 C 1532.334 509.275,1534.801 514.000,1537.519 519.500 C 1540.238 525.000,1542.747 529.725,1543.096 530.000 C 1543.445 530.275,1544.069 531.625,1544.483 533.000 C 1544.898 534.375,1545.816 536.175,1546.525 537.000 C 1547.234 537.825,1548.323 540.413,1548.946 542.750 C 1549.568 545.087,1550.460 547.000,1550.927 547.000 C 1551.395 547.000,1552.073 548.575,1552.434 550.500 C 1552.795 552.425,1553.522 554.000,1554.049 554.000 C 1554.576 554.000,1555.549 556.025,1556.211 558.500 C 1556.873 560.975,1557.715 563.000,1558.082 563.000 C 1558.450 563.000,1559.020 564.350,1559.350 566.000 C 1559.680 567.650,1560.872 571.025,1562.000 573.500 C 1563.128 575.975,1564.320 579.350,1564.650 581.000 C 1564.980 582.650,1565.644 584.000,1566.125 584.000 C 1566.606 584.000,1567.000 584.868,1567.000 585.929 C 1567.000 586.989,1567.573 588.452,1568.273 589.179 C 1568.974 589.905,1570.139 593.424,1570.864 596.997 C 1571.588 600.570,1572.545 603.720,1572.992 603.997 C 1573.438 604.274,1574.028 605.850,1574.304 607.500 C 1574.939 611.301,1576.017 614.000,1576.900 614.000 C 1577.277 614.000,1578.127 616.025,1578.789 618.500 C 1579.451 620.975,1580.444 623.000,1580.996 623.000 C 1581.548 623.000,1582.000 623.588,1582.000 624.306 C 1582.000 625.024,1583.012 627.007,1584.250 628.712 C 1585.487 630.418,1587.170 632.868,1587.990 634.157 C 1590.500 638.106,1609.855 657.000,1611.390 657.000 C 1612.184 657.000,1612.983 657.375,1613.167 657.832 C 1613.514 658.700,1627.377 667.000,1628.479 667.000 C 1628.826 667.000,1630.998 667.850,1633.305 668.889 C 1635.612 669.928,1639.412 671.092,1641.750 671.477 C 1644.088 671.861,1646.000 672.533,1646.000 672.969 C 1646.000 673.405,1650.274 674.083,1655.499 674.474 C 1660.723 674.866,1665.249 675.594,1665.558 676.093 C 1665.866 676.592,1669.043 677.000,1672.618 677.000 C 1676.193 677.000,1678.873 676.603,1678.573 676.118 C 1678.273 675.633,1682.296 674.916,1687.512 674.525 C 1692.729 674.134,1697.210 673.470,1697.469 673.050 C 1697.729 672.629,1700.655 671.710,1703.971 671.006 C 1707.287 670.302,1710.000 669.338,1710.000 668.863 C 1710.000 668.389,1710.688 668.000,1711.529 668.000 C 1712.369 668.000,1715.806 666.537,1719.166 664.750 C 1722.525 662.962,1726.580 660.805,1728.177 659.956 C 1729.773 659.107,1730.815 658.149,1730.493 657.826 C 1730.171 657.504,1731.040 656.956,1732.425 656.608 C 1733.809 656.261,1735.421 655.082,1736.006 653.988 C 1736.592 652.895,1737.515 652.000,1738.059 652.000 C 1739.070 652.000,1752.000 639.608,1752.000 638.639 C 1752.000 638.344,1753.028 636.994,1754.285 635.637 C 1755.542 634.281,1757.229 631.896,1758.033 630.336 C 1758.838 628.776,1759.776 627.275,1760.117 627.000 C 1761.503 625.884,1767.000 614.589,1767.000 612.859 C 1767.000 611.837,1767.400 611.000,1767.889 611.000 C 1768.377 611.000,1769.094 609.314,1769.480 607.252 C 1769.867 605.191,1770.628 603.230,1771.171 602.894 C 1772.408 602.130,1773.924 590.669,1773.967 581.750 C 1773.986 577.938,1774.435 575.000,1775.000 575.000 C 1775.550 575.000,1776.000 574.127,1776.000 573.059 C 1776.000 571.991,1775.550 570.840,1775.000 570.500 C 1774.450 570.160,1773.991 566.871,1773.980 563.191 C 1773.946 551.758,1770.465 534.026,1767.856 532.000 C 1767.502 531.725,1766.612 528.913,1765.879 525.750 C 1765.145 522.587,1764.198 520.000,1763.773 520.000 C 1763.348 520.000,1763.000 519.318,1763.000 518.484 C 1763.000 516.307,1760.624 509.000,1759.916 509.000 C 1759.588 509.000,1758.726 506.525,1758.000 503.500 C 1757.274 500.475,1756.302 498.000,1755.840 498.000 C 1755.378 498.000,1755.000 497.132,1755.000 496.071 C 1755.000 495.011,1754.325 493.468,1753.500 492.643 C 1752.675 491.818,1752.000 490.600,1752.000 489.937 C 1752.000 487.484,1749.678 481.081,1748.951 481.530 C 1748.537 481.786,1747.659 479.746,1746.999 476.998 C 1746.340 474.249,1745.445 472.000,1745.012 472.000 C 1744.578 472.000,1743.927 470.425,1743.566 468.500 C 1743.205 466.575,1742.552 465.000,1742.115 465.000 C 1741.678 465.000,1740.699 463.087,1739.940 460.750 C 1739.181 458.413,1737.984 455.905,1737.280 455.179 C 1736.576 454.452,1736.000 453.238,1736.000 452.481 C 1736.000 451.725,1734.875 448.990,1733.500 446.404 C 1732.125 443.818,1731.000 441.094,1731.000 440.351 C 1731.000 439.608,1730.586 439.000,1730.079 439.000 C 1729.573 439.000,1728.869 437.681,1728.515 436.069 C 1728.161 434.457,1727.270 432.639,1726.534 432.028 C 1725.798 431.418,1724.919 429.811,1724.579 428.459 C 1724.240 427.107,1723.520 426.000,1722.981 426.000 C 1722.441 426.000,1722.000 425.512,1722.000 424.915 C 1722.000 424.318,1720.370 420.605,1718.378 416.665 C 1716.387 412.724,1714.249 408.491,1713.628 407.258 C 1713.008 406.025,1712.162 405.012,1711.750 405.008 C 1711.338 405.004,1711.000 404.511,1711.000 403.912 C 1711.000 403.314,1709.313 399.886,1707.250 396.294 C 1705.188 392.702,1702.211 387.454,1700.635 384.631 C 1699.060 381.809,1697.449 379.275,1697.055 379.000 C 1696.662 378.725,1695.703 377.038,1694.926 375.250 C 1694.148 373.463,1693.172 372.000,1692.756 372.000 C 1692.340 372.000,1692.000 371.580,1692.000 371.066 C 1692.000 369.599,1685.798 360.000,1684.851 360.000 C 1684.383 360.000,1684.000 359.462,1684.000 358.804 C 1684.000 357.792,1679.583 350.571,1678.003 349.000 C 1677.726 348.725,1677.050 347.765,1676.500 346.866 C 1674.215 343.133,1667.457 333.409,1666.338 332.244 C 1665.674 331.553,1664.846 330.091,1664.498 328.994 C 1664.150 327.897,1663.434 327.000,1662.908 327.000 C 1662.381 327.000,1661.523 325.875,1661.000 324.500 C 1660.477 323.125,1659.588 322.000,1659.025 322.000 C 1658.461 322.000,1658.000 321.311,1658.000 320.469 C 1658.000 319.626,1657.342 318.685,1656.538 318.376 C 1655.734 318.068,1654.820 317.007,1654.506 316.019 C 1654.193 315.031,1652.938 313.112,1651.718 311.754 C 1650.498 310.396,1648.825 308.259,1648.000 307.004 C 1645.829 303.701,1641.466 298.378,1636.454 292.916 C 1635.654 292.045,1634.997 290.920,1634.993 290.416 C 1634.989 289.912,1633.211 287.700,1631.042 285.500 C 1628.873 283.300,1627.076 281.202,1627.049 280.839 C 1627.001 280.191,1624.778 277.617,1616.250 268.335 C 1613.912 265.791,1612.000 263.325,1612.000 262.855 C 1612.000 262.385,1611.325 262.000,1610.500 262.000 C 1609.675 262.000,1609.000 261.387,1609.000 260.637 C 1609.000 259.887,1606.750 257.169,1604.000 254.597 C 1601.250 252.024,1599.000 249.570,1599.000 249.143 C 1599.000 248.148,1564.758 213.795,1559.623 209.638 C 1557.491 207.912,1554.156 204.813,1552.212 202.750 C 1550.269 200.688,1548.351 199.000,1547.951 199.000 C 1547.550 199.000,1544.759 196.638,1541.747 193.750 C 1534.180 186.496,1529.072 182.109,1526.733 180.857 C 1525.643 180.274,1523.348 178.267,1521.633 176.398 C 1519.917 174.529,1518.173 173.000,1517.757 173.000 C 1517.341 173.000,1516.146 172.213,1515.102 171.250 C 1511.678 168.094,1505.792 163.529,1503.175 162.000 C 1501.763 161.175,1499.683 159.600,1498.554 158.500 C 1497.424 157.400,1494.250 154.949,1491.500 153.054 C 1488.750 151.158,1486.140 149.021,1485.700 148.304 C 1485.260 147.587,1484.460 147.000,1483.921 147.000 C 1483.126 147.000,1477.922 143.307,1471.500 138.186 C 1470.950 137.748,1469.037 136.741,1467.250 135.950 C 1465.463 135.159,1464.000 134.169,1464.000 133.749 C 1464.000 132.833,1450.401 124.000,1448.990 124.000 C 1448.445 124.000,1448.000 123.634,1448.000 123.187 C 1448.000 122.739,1446.444 121.763,1444.542 121.016 C 1442.640 120.270,1440.854 119.061,1440.573 118.330 C 1440.292 117.598,1439.374 117.000,1438.531 117.000 C 1437.689 117.000,1437.000 116.579,1437.000 116.065 C 1437.000 115.550,1435.425 114.560,1433.500 113.864 C 1431.575 113.168,1430.000 112.272,1430.000 111.872 C 1430.000 111.473,1428.763 110.521,1427.250 109.757 C 1423.081 107.651,1419.770 105.687,1417.122 103.750 C 1415.807 102.787,1413.891 102.000,1412.865 102.000 C 1411.839 102.000,1411.000 101.579,1411.000 101.065 C 1411.000 100.550,1409.425 99.560,1407.500 98.864 C 1405.575 98.168,1404.000 97.287,1404.000 96.908 C 1404.000 96.528,1402.238 95.512,1400.085 94.651 C 1397.932 93.789,1395.902 92.650,1395.574 92.119 C 1395.245 91.588,1393.670 90.867,1392.072 90.516 C 1390.474 90.165,1388.908 89.202,1388.591 88.376 C 1388.274 87.549,1387.592 87.134,1387.076 87.453 C 1386.560 87.772,1385.904 87.654,1385.618 87.191 C 1385.332 86.728,1382.263 84.976,1378.799 83.299 C 1375.334 81.621,1368.450 78.291,1363.500 75.899 C 1358.550 73.506,1354.275 71.294,1354.000 70.982 C 1353.725 70.671,1351.588 69.800,1349.250 69.048 C 1346.912 68.296,1345.000 67.411,1345.000 67.083 C 1345.000 66.366,1337.678 64.000,1335.457 64.000 C 1334.591 64.000,1334.137 63.587,1334.450 63.081 C 1334.762 62.576,1333.664 61.865,1332.009 61.502 C 1330.354 61.138,1329.000 60.499,1329.000 60.080 C 1329.000 59.662,1326.525 58.726,1323.500 58.000 C 1320.475 57.274,1318.000 56.401,1318.000 56.059 C 1318.000 55.717,1315.975 54.839,1313.500 54.108 C 1311.025 53.377,1309.000 52.440,1309.000 52.026 C 1309.000 51.612,1306.300 50.700,1303.000 50.000 C 1299.700 49.300,1297.000 48.338,1297.000 47.863 C 1297.000 47.389,1296.307 47.000,1295.460 47.000 C 1294.613 47.000,1292.251 46.154,1290.210 45.120 C 1288.170 44.086,1284.590 42.922,1282.255 42.533 C 1279.921 42.144,1277.775 41.445,1277.488 40.980 C 1277.200 40.515,1274.498 39.622,1271.483 38.996 C 1268.467 38.370,1266.000 37.489,1266.000 37.038 C 1266.000 36.586,1263.075 35.636,1259.500 34.925 C 1255.925 34.214,1253.000 33.298,1253.000 32.888 C 1253.000 32.479,1250.530 31.835,1247.511 31.458 C 1244.493 31.081,1242.224 30.447,1242.470 30.048 C 1242.938 29.292,1234.257 27.000,1230.924 27.000 C 1229.866 27.000,1229.000 26.550,1229.000 26.000 C 1229.000 25.450,1228.015 25.000,1226.810 25.000 C 1223.617 25.000,1212.585 22.682,1212.000 21.888 C 1211.725 21.515,1207.900 20.620,1203.500 19.899 C 1199.100 19.178,1195.275 18.298,1195.000 17.942 C 1194.725 17.586,1192.036 16.975,1189.025 16.583 C 1186.014 16.192,1183.070 15.473,1182.483 14.986 C 1181.896 14.499,1177.160 13.561,1171.958 12.902 C 1166.756 12.243,1162.275 11.383,1162.000 10.990 C 1161.725 10.598,1155.657 9.733,1148.515 9.068 C 1141.374 8.403,1135.264 7.426,1134.937 6.898 C 1134.610 6.370,1129.653 5.658,1123.922 5.318 C 1118.190 4.977,1113.269 4.350,1112.987 3.924 C 1112.388 3.020,1102.833 2.404,1068.500 1.057 C 1041.001 -0.022,1006.791 -0.025,977.500 1.048 M1026.467 1009.256 C 1027.549 1011.040,1028.772 1013.288,1029.185 1014.250 C 1029.598 1015.212,1030.400 1016.000,1030.968 1016.000 C 1031.535 1016.000,1032.000 1016.441,1032.000 1016.981 C 1032.000 1017.520,1033.688 1020.506,1035.750 1023.615 C 1037.813 1026.725,1039.950 1029.997,1040.500 1030.885 C 1041.050 1031.773,1042.063 1032.860,1042.750 1033.300 C 1043.438 1033.740,1044.000 1034.766,1044.000 1035.581 C 1044.000 1036.396,1044.675 1037.322,1045.500 1037.638 C 1046.325 1037.955,1047.000 1038.630,1047.000 1039.139 C 1047.000 1039.923,1054.824 1052.420,1057.243 1055.500 C 1058.827 1057.517,1063.000 1064.104,1063.000 1064.587 C 1063.000 1064.861,1064.800 1067.522,1067.000 1070.500 C 1069.200 1073.478,1071.000 1076.384,1071.000 1076.957 C 1071.000 1077.531,1071.465 1078.000,1072.032 1078.000 C 1072.600 1078.000,1073.387 1078.817,1073.782 1079.815 C 1074.738 1082.231,1086.294 1099.409,1087.250 1099.833 C 1087.662 1100.017,1088.000 1100.749,1088.000 1101.461 C 1088.000 1102.173,1088.634 1103.281,1089.408 1103.924 C 1090.182 1104.566,1091.553 1106.646,1092.455 1108.546 C 1093.356 1110.446,1094.523 1112.000,1095.047 1112.000 C 1095.571 1112.000,1096.002 1112.563,1096.004 1113.250 C 1096.007 1113.938,1097.807 1116.872,1100.004 1119.770 C 1102.202 1122.669,1104.000 1125.242,1104.000 1125.489 C 1104.000 1126.038,1112.259 1138.303,1113.099 1139.000 C 1113.430 1139.275,1114.279 1140.597,1114.986 1141.937 C 1115.692 1143.277,1116.666 1144.852,1117.149 1145.437 C 1119.220 1147.942,1123.000 1154.169,1123.000 1155.076 C 1123.000 1155.619,1123.675 1156.322,1124.500 1156.638 C 1125.325 1156.955,1126.000 1157.855,1126.000 1158.638 C 1126.000 1159.422,1126.675 1160.322,1127.500 1160.638 C 1128.325 1160.955,1129.000 1161.686,1129.000 1162.263 C 1129.000 1162.839,1130.125 1164.786,1131.500 1166.589 C 1132.875 1168.392,1134.000 1170.163,1134.000 1170.524 C 1134.000 1171.053,1139.796 1179.815,1143.241 1184.494 C 1144.851 1186.680,1153.000 1199.284,1153.000 1199.588 C 1153.000 1200.401,1158.003 1207.176,1158.023 1206.390 C 1158.035 1205.900,1158.803 1207.075,1159.729 1209.000 C 1160.655 1210.925,1161.995 1212.860,1162.706 1213.300 C 1163.418 1213.740,1164.000 1214.586,1164.000 1215.180 C 1164.000 1215.775,1165.575 1218.453,1167.500 1221.133 C 1169.425 1223.812,1171.000 1226.431,1171.000 1226.953 C 1171.000 1227.474,1171.593 1228.260,1172.319 1228.700 C 1173.044 1229.140,1175.072 1232.035,1176.825 1235.133 C 1178.578 1238.231,1180.685 1241.323,1181.506 1242.005 C 1182.328 1242.687,1183.000 1243.865,1183.000 1244.622 C 1183.000 1245.380,1183.461 1246.000,1184.025 1246.000 C 1184.588 1246.000,1185.477 1247.125,1186.000 1248.500 C 1186.523 1249.875,1187.412 1251.000,1187.975 1251.000 C 1188.539 1251.000,1189.000 1251.471,1189.000 1252.046 C 1189.000 1252.895,1200.159 1270.458,1209.552 1284.390 C 1210.623 1285.980,1211.950 1288.005,1212.500 1288.890 C 1213.050 1289.776,1213.747 1290.725,1214.049 1291.000 C 1214.351 1291.275,1217.720 1296.225,1221.535 1302.000 C 1225.350 1307.775,1228.725 1312.725,1229.034 1313.000 C 1229.343 1313.275,1230.833 1315.641,1232.344 1318.257 L 1235.093 1323.014 1232.481 1324.007 C 1231.045 1324.553,1229.224 1325.000,1228.435 1325.000 C 1227.646 1325.000,1227.000 1325.389,1227.000 1325.863 C 1227.000 1326.338,1224.300 1327.300,1221.000 1328.000 C 1217.700 1328.700,1215.000 1329.591,1215.000 1329.978 C 1215.000 1330.858,1208.008 1333.000,1205.134 1333.000 C 1203.960 1333.000,1203.000 1333.418,1203.000 1333.929 C 1203.000 1334.440,1200.412 1335.371,1197.250 1335.998 C 1194.088 1336.624,1190.082 1337.781,1188.349 1338.568 C 1186.616 1339.356,1184.478 1340.000,1183.599 1340.000 C 1182.719 1340.000,1182.000 1340.378,1182.000 1340.840 C 1182.000 1341.302,1178.737 1342.259,1174.750 1342.966 C 1170.763 1343.674,1167.275 1344.550,1167.000 1344.914 C 1166.725 1345.277,1163.142 1346.135,1159.039 1346.820 C 1154.935 1347.505,1151.335 1348.409,1151.039 1348.828 C 1150.466 1349.637,1135.273 1352.000,1130.639 1352.000 C 1129.123 1352.000,1128.120 1352.385,1128.411 1352.856 C 1128.702 1353.327,1125.512 1354.001,1121.323 1354.355 C 1117.133 1354.710,1113.174 1355.441,1112.524 1355.980 C 1111.459 1356.864,1092.689 1358.970,1085.691 1358.991 C 1084.146 1358.996,1083.130 1359.401,1083.432 1359.890 C 1083.742 1360.391,1074.906 1361.109,1063.241 1361.530 C 1036.537 1362.496,965.952 1361.538,965.118 1360.199 C 964.778 1359.653,958.229 1358.713,950.564 1358.111 C 942.899 1357.508,936.364 1356.590,936.043 1356.070 C 935.722 1355.550,931.981 1354.810,927.730 1354.425 C 923.478 1354.039,920.000 1353.336,920.000 1352.862 C 920.000 1352.388,918.763 1352.003,917.250 1352.007 C 913.254 1352.016,898.587 1349.736,898.000 1349.013 C 897.330 1348.189,887.467 1346.000,884.424 1346.000 C 883.091 1346.000,882.000 1345.629,882.000 1345.177 C 882.000 1344.724,878.400 1343.744,874.000 1343.000 C 869.600 1342.256,866.000 1341.316,866.000 1340.911 C 866.000 1340.507,864.200 1339.872,862.000 1339.500 C 859.800 1339.128,858.000 1338.465,858.000 1338.026 C 858.000 1337.586,855.862 1336.916,853.250 1336.536 C 850.638 1336.155,847.600 1335.276,846.500 1334.581 C 845.400 1333.886,842.871 1333.059,840.879 1332.742 C 838.888 1332.426,835.288 1331.287,832.879 1330.210 C 830.471 1329.133,826.813 1327.950,824.750 1327.581 C 822.688 1327.212,821.000 1326.530,821.000 1326.066 C 821.000 1325.602,819.441 1324.930,817.535 1324.573 C 815.629 1324.215,813.809 1323.500,813.489 1322.983 C 813.016 1322.217,815.933 1317.058,818.003 1315.000 C 818.698 1314.309,823.283 1307.239,825.815 1302.955 C 826.967 1301.006,828.830 1298.349,829.955 1297.052 C 831.080 1295.755,832.000 1294.294,832.000 1293.805 C 832.000 1293.316,832.467 1292.372,833.038 1291.708 C 834.945 1289.488,843.000 1278.038,843.000 1277.547 C 843.000 1276.911,851.157 1264.864,852.684 1263.244 C 853.336 1262.553,854.154 1261.091,854.502 1259.994 C 854.850 1258.897,855.470 1258.000,855.881 1258.000 C 856.291 1258.000,857.237 1256.444,857.984 1254.542 C 858.730 1252.640,859.939 1250.854,860.670 1250.573 C 861.402 1250.292,862.000 1249.422,862.000 1248.638 C 862.000 1247.855,862.675 1246.955,863.500 1246.638 C 864.325 1246.322,865.000 1245.658,865.000 1245.164 C 865.000 1244.429,871.934 1233.302,874.762 1229.500 C 875.171 1228.950,877.747 1225.125,880.486 1221.000 C 883.225 1216.875,885.699 1213.275,885.983 1213.000 C 886.267 1212.725,886.950 1211.746,887.500 1210.824 C 889.297 1207.812,902.861 1187.527,903.807 1186.437 C 904.314 1185.852,905.308 1184.277,906.014 1182.937 C 906.721 1181.597,907.574 1180.275,907.909 1180.000 C 909.146 1178.986,914.000 1171.008,914.000 1169.990 C 914.000 1169.411,914.675 1168.678,915.500 1168.362 C 916.325 1168.045,917.000 1167.354,917.000 1166.826 C 917.000 1166.298,918.125 1164.392,919.500 1162.589 C 920.875 1160.786,922.000 1158.829,922.000 1158.239 C 922.000 1157.649,922.337 1157.017,922.750 1156.833 C 923.875 1156.333,930.000 1147.325,930.000 1146.170 C 930.000 1145.618,930.337 1145.017,930.750 1144.833 C 931.964 1144.294,937.000 1137.230,937.000 1136.067 C 937.000 1135.480,937.367 1135.000,937.815 1135.000 C 938.263 1135.000,939.393 1133.537,940.327 1131.750 C 942.437 1127.709,943.875 1125.485,951.924 1113.814 C 955.458 1108.691,960.290 1101.575,962.663 1098.000 C 965.036 1094.425,967.432 1090.956,967.988 1090.292 C 968.545 1089.628,969.000 1088.821,969.000 1088.500 C 969.000 1088.178,970.688 1085.555,972.750 1082.672 C 974.813 1079.788,976.950 1076.704,977.500 1075.817 C 978.050 1074.930,979.962 1072.111,981.750 1069.552 C 983.538 1066.993,985.000 1064.679,985.000 1064.409 C 985.000 1063.824,989.005 1058.090,990.684 1056.271 C 991.336 1055.565,992.154 1054.091,992.502 1052.994 C 992.850 1051.897,993.500 1051.000,993.946 1051.000 C 994.392 1051.000,995.317 1049.650,996.000 1048.000 C 996.683 1046.350,997.554 1045.000,997.935 1045.000 C 998.315 1045.000,999.237 1043.444,999.984 1041.542 C 1000.730 1039.640,1001.939 1037.854,1002.670 1037.573 C 1003.402 1037.292,1004.000 1036.374,1004.000 1035.531 C 1004.000 1034.689,1004.464 1034.000,1005.031 1034.000 C 1005.599 1034.000,1006.353 1033.213,1006.708 1032.250 C 1007.365 1030.466,1011.489 1024.569,1013.750 1022.179 C 1014.438 1021.452,1015.000 1020.246,1015.000 1019.500 C 1015.000 1018.754,1015.785 1017.358,1016.744 1016.399 C 1018.445 1014.698,1019.680 1012.826,1022.121 1008.250 C 1023.694 1005.301,1024.130 1005.402,1026.467 1009.256 " fill="#ffffff" fill-rule="evenodd"/></svg>